<svg width="38" height="38" viewBox="0 0 38 38" fill="none" xmlns="http://www.w3.org/2000/svg">
<path d="M19 37C28.9411 37 37 28.9411 37 19C37 9.05887 28.9411 1 19 1C9.05887 1 1 9.05887 1 19C1 28.9411 9.05887 37 19 37Z" fill="white"/>
<path d="M19.0002 36.1818C28.4894 36.1818 36.182 28.4892 36.182 18.9999C36.182 9.51068 28.4894 1.81812 19.0002 1.81812C9.51092 1.81812 1.81836 9.51068 1.81836 18.9999C1.81836 28.4892 9.51092 36.1818 19.0002 36.1818Z" stroke="#C2C9DE" stroke-width="2"/>
<path d="M25.8434 13.6868H12.1577C10.8021 13.6868 9.70312 14.7857 9.70312 16.1413V25.3999C9.70312 26.7555 10.8021 27.8544 12.1577 27.8544H25.8434C27.199 27.8544 28.2979 26.7555 28.2979 25.3999V16.1413C28.2979 14.7857 27.199 13.6868 25.8434 13.6868Z" fill="#C2C9DE"/>
<path d="M17.8344 11.03H20.3012C20.9836 11.03 21.5367 11.642 22.1012 13.7636C22.1012 14.5188 20.9852 15.1308 20.3012 15.1308H17.8344C17.152 15.1308 15.9043 14.5188 15.9043 13.7636C16.5965 11.642 17.1488 11.03 17.8344 11.03Z" fill="#C2C9DE"/>
<path d="M18.9998 25.2305C21.4634 25.2305 23.4605 23.2334 23.4605 20.7698C23.4605 18.3062 21.4634 16.3091 18.9998 16.3091C16.5362 16.3091 14.5391 18.3062 14.5391 20.7698C14.5391 23.2334 16.5362 25.2305 18.9998 25.2305Z" stroke="white"/>
</svg>
