<svg width="36" height="36" viewBox="0 0 36 36" fill="none" xmlns="http://www.w3.org/2000/svg">
<rect width="36" height="36" fill="white"/>
<path d="M35.0294 15.6583L35.0269 15.6558L20.3418 0.971191C19.7158 0.344971 18.8836 0 17.9984 0C17.1132 0 16.281 0.344696 15.6547 0.970917L0.977271 15.6481C0.972327 15.653 0.967383 15.6583 0.962439 15.6632C-0.322961 16.956 -0.320764 19.0536 0.968756 20.3431C1.5579 20.9325 2.336 21.2739 3.16794 21.3096C3.20173 21.3129 3.23579 21.3146 3.27012 21.3146H3.85541V32.1216C3.85541 34.26 5.59537 36 7.73441 36H13.4797C14.062 36 14.5344 35.5279 14.5344 34.9453V26.4727C14.5344 25.4968 15.3282 24.703 16.304 24.703H19.6928C20.6686 24.703 21.4624 25.4968 21.4624 26.4727V34.9453C21.4624 35.5279 21.9345 36 22.5171 36H28.2624C30.4014 36 32.1414 34.26 32.1414 32.1216V21.3146H32.6841C33.569 21.3146 34.4013 20.9699 35.0277 20.3437C36.3186 19.0519 36.3192 16.9508 35.0294 15.6583Z" fill="#C5F1EC"/>
<path fill-rule="evenodd" clip-rule="evenodd" d="M33.1483 16.1872L33.1461 16.185L20.2102 2.87995C19.6588 2.31256 18.9257 2 18.146 2C17.3662 2 16.6331 2.31231 16.0815 2.8797L16 2.96349C16.5616 3.07781 17.0778 3.36013 17.4917 3.78603L30.4277 17.091L30.4298 17.0933C31.566 18.2644 31.5655 20.1681 30.4284 21.3385C29.8765 21.9059 29.1434 22.2182 28.3639 22.2182H27.8858V32.0099C27.8858 33.0434 27.4497 33.9743 26.7567 34.6179H27.1873C29.0716 34.6179 30.6043 33.0414 30.6043 31.1038V21.3121H31.0824C31.8619 21.3121 32.595 20.9998 33.1469 20.4324C34.284 19.262 34.2845 17.3583 33.1483 16.1872Z" fill="white"/>
<path d="M35.0297 15.6583L35.027 15.6555L20.3418 0.970919C19.7159 0.344697 18.8836 0 17.9984 0C17.1132 0 16.281 0.344697 15.6548 0.970919L0.977273 15.6481C0.972329 15.6531 0.96711 15.6583 0.962441 15.6632C-0.322962 16.9561 -0.320764 19.0536 0.968758 20.3431C1.5579 20.9326 2.33573 21.2737 3.16768 21.3097C3.20173 21.313 3.23579 21.3146 3.27012 21.3146H3.85515V32.1213C3.85515 34.2601 5.59538 36.0001 7.73415 36.0001H13.4795C14.062 36.0001 14.5342 35.5277 14.5342 34.9454V26.4727C14.5342 25.4968 15.3282 24.7031 16.3041 24.7031H19.6928C20.6687 24.7031 21.4624 25.4968 21.4624 26.4727V34.9454C21.4624 35.5277 21.9346 36.0001 22.5171 36.0001H28.2624C30.4015 36.0001 32.1414 34.2601 32.1414 32.1213V21.3146H32.6842C33.5691 21.3146 34.4013 20.9699 35.0278 20.3434C36.3187 19.052 36.3193 16.9506 35.0297 15.6583ZM33.5361 18.852C33.3084 19.0797 33.0058 19.2052 32.6842 19.2052H31.0867C30.5042 19.2052 30.032 19.6774 30.032 20.2599V32.1213C30.032 33.0969 29.2383 33.8907 28.2624 33.8907H23.5718V26.4727C23.5718 24.3339 21.8318 22.5937 19.6928 22.5937H16.3041C14.165 22.5937 12.4248 24.3339 12.4248 26.4727V33.8907H7.73415C6.75856 33.8907 5.96453 33.0969 5.96453 32.1213V20.2599C5.96453 19.6774 5.49239 19.2052 4.90984 19.2052H3.33989C3.32341 19.2041 3.3072 19.2033 3.29045 19.203C2.97624 19.1975 2.68153 19.0729 2.4607 18.8518C1.99104 18.3821 1.99104 17.6177 2.4607 17.1478L2.46208 17.1464L17.1467 2.46232C17.3741 2.23462 17.6765 2.10938 17.9984 2.10938C18.32 2.10938 18.6224 2.23462 18.8501 2.46232L33.5315 17.1434C33.5337 17.1456 33.5361 17.1478 33.5383 17.15C34.0055 17.6205 34.0047 18.3832 33.5361 18.852Z" fill="#5CC6BA"/>
</svg>
