<svg width="36" height="36" viewBox="0 0 36 36" fill="none" xmlns="http://www.w3.org/2000/svg">
<path d="M18.0379 0C10.8487 0 5 5.84874 5 13.0378C5 21.9596 16.6676 35.0574 17.1644 35.6106C17.631 36.1303 18.4456 36.1293 18.9113 35.6106C19.4081 35.0574 31.0757 21.9596 31.0757 13.0378C31.0756 5.84874 25.2269 0 18.0379 0ZM18.0379 19.5975C14.4208 19.5975 11.4782 16.6548 11.4782 13.0378C11.4782 9.42076 14.4209 6.47818 18.0379 6.47818C21.6548 6.47818 24.5974 9.42083 24.5974 13.0379C24.5974 16.6549 21.6548 19.5975 18.0379 19.5975Z" fill="#C5F1EC"/>
<path d="M18.0378 0C10.8487 0 5 5.84873 5 13.0378C5 21.9596 16.6676 35.0573 17.1643 35.6105C17.6309 36.1302 18.4456 36.1293 18.9113 35.6105C19.4081 35.0573 31.0757 21.9596 31.0757 13.0378C31.0755 5.84873 25.2269 0 18.0378 0ZM18.0378 33.0278C14.1111 28.3634 7.34787 19.161 7.34787 13.0379C7.34787 7.14333 12.1433 2.34787 18.0378 2.34787C23.9323 2.34787 28.7278 7.14333 28.7278 13.0378C28.7277 19.1612 21.9656 28.362 18.0378 33.0278Z" fill="#5CC6BA"/>
<path d="M18.0381 6.47803C14.4211 6.47803 11.4785 9.42068 11.4785 13.0377C11.4785 16.6547 14.4212 19.5974 18.0381 19.5974C21.655 19.5974 24.5976 16.6547 24.5976 13.0377C24.5976 9.42068 21.655 6.47803 18.0381 6.47803ZM18.0381 17.2495C15.7157 17.2495 13.8264 15.3601 13.8264 13.0377C13.8264 10.7153 15.7158 8.8259 18.0381 8.8259C20.3605 8.8259 22.2498 10.7153 22.2498 13.0377C22.2498 15.3601 20.3605 17.2495 18.0381 17.2495Z" fill="#5CC6BA"/>
</svg>
