<svg width="50" height="70" viewBox="0 0 50 70" fill="none" xmlns="http://www.w3.org/2000/svg">
<path d="M25 0C11.2149 0 0 11.2149 0 24.9999C0 42.1074 22.3726 67.2223 23.3251 68.2831C24.2198 69.2796 25.7818 69.2778 26.6749 68.2831C27.6274 67.2223 50 42.1074 50 24.9999C49.9997 11.2149 38.7849 0 25 0Z" fill="white"/>
<path fill-rule="evenodd" clip-rule="evenodd" d="M42.4606 20.902C42.7233 37.003 23.4361 60.4629 20.1181 64.3769C20.2818 64.5757 20.3914 64.7068 20.4399 64.7645C21.2513 65.73 22.7218 65.7766 23.5931 64.8678C24.5224 63.8986 46.356 40.9481 46.8836 24.845C47.173 16.0062 42.5275 8.12943 35.4347 3.87097C39.692 8.30239 42.3525 14.2877 42.4606 20.902Z" fill="white"/>
<path d="M25 0C11.2149 0 0 11.2149 0 24.9998C0 42.1074 22.3725 67.2222 23.3251 68.283C24.2197 69.2795 25.7818 69.2777 26.6749 68.283C27.6274 67.2222 49.9999 42.1074 49.9999 24.9998C49.9997 11.2149 38.7849 0 25 0ZM25 63.3306C17.4705 54.3867 4.50204 36.7411 4.50204 25.0001C4.50204 13.6973 13.6973 4.50204 25 4.50204C36.3027 4.50204 45.4979 13.6973 45.4979 25C45.4978 36.7415 32.5314 54.3839 25 63.3306Z" fill="#5CC6BA"/>
<path d="M25 0C11.2149 0 0 11.2149 0 24.9998C0 42.1074 22.3725 67.2222 23.3251 68.283C24.2197 69.2795 25.7818 69.2777 26.6749 68.283C27.6274 67.2222 49.9999 42.1074 49.9999 24.9998C49.9997 11.2149 38.7849 0 25 0ZM25 63.3306C17.4705 54.3867 4.50204 36.7411 4.50204 25.0001C4.50204 13.6973 13.6973 4.50204 25 4.50204C36.3027 4.50204 45.4979 13.6973 45.4979 25C45.4978 36.7415 32.5314 54.3839 25 63.3306Z" fill="#5CC6BA"/>
<path d="M17.2732 33.3643H36.4328V15.9151C36.4328 15.254 36.1634 14.62 35.6839 14.1525C35.2045 13.685 34.5542 13.4224 33.8761 13.4224H17.2578C15.7162 13.4224 13.4229 14.4182 13.4229 17.1615V34.6107C13.4229 37.3539 15.7162 38.3498 17.2578 38.3498H36.4328V35.857H17.2732C16.6826 35.8421 15.9795 35.614 15.9795 34.6107C15.9795 33.6073 16.6826 33.3793 17.2732 33.3643V33.3643ZM19.8145 18.4078H31.3195V20.9006H19.8145V18.4078Z" fill="#5CC6BA"/>
</svg>
