<svg width="36" height="36" viewBox="0 0 36 36" fill="none" xmlns="http://www.w3.org/2000/svg">
<rect width="36" height="36" fill="white"/>
<path d="M24 2.5L25.5 1H32.5L34 2V7L33.5 9H30.5H27.5L25.5 11H24V7V2.5Z" fill="#C5F1EC"/>
<path d="M4 25.5L12 7L28.5 23L20 27.5L21 28.5L22 31L15.5 34.5L13 33L11.5 31L9.5 32L7 34.5H5L1 30.5V28.5L4 25.5Z" fill="#C5F1EC"/>
<path d="M22 22L11 10.5L12.5 7.5L18.5 12.5L28.5 23.5L23.5 26.5V25.5C23.5 24.3 22.5 22.6667 22 22Z" fill="white"/>
<path d="M32.8359 0H26.5078C24.7603 0 23.3438 1.41659 23.3438 3.16406V12.3047C23.3438 13.1891 24.3667 13.6807 25.0573 13.1283L28.284 10.5469H32.8359C34.5834 10.5469 36 9.13029 36 7.38281V3.16406C36 1.41659 34.5834 0 32.8359 0ZM33.8906 7.38281C33.8906 7.96528 33.4184 8.4375 32.8359 8.4375H27.9141C27.6746 8.4375 27.4422 8.51899 27.2552 8.66861L25.4531 10.1103V3.16406C25.4531 2.58159 25.9253 2.10937 26.5078 2.10937H32.8359C33.4184 2.10937 33.8906 2.58159 33.8906 3.16406V7.38281Z" fill="#5CC6BA"/>
<path d="M13.0651 6.03061C12.5395 5.50495 11.6496 5.67349 11.3525 6.35496L2.98021 25.562L1.13268 27.4095C-0.37756 28.9198 -0.37756 31.3683 1.13268 32.8786L3.1214 34.8673C4.63164 36.3775 7.0802 36.3775 8.59044 34.8673L10.438 33.0198L10.9811 32.783L13.0267 34.8285C13.6355 35.4373 14.4378 35.7584 15.2573 35.7584C15.6846 35.7584 16.1168 35.671 16.5283 35.4917L21.629 33.2682C22.3757 32.9427 22.912 32.2706 23.0636 31.4703C23.2152 30.6699 22.9619 29.8482 22.3858 29.2722L21.3687 28.255L29.6449 24.6474C30.3264 24.3503 30.495 23.4604 29.9693 22.9348L13.0651 6.03061ZM7.0989 33.3758C6.4135 34.0612 5.29834 34.0612 4.61301 33.3758L2.62429 31.387C1.93888 30.7016 1.93888 29.5865 2.62429 28.9011L3.8672 27.6581L8.34189 32.1328L7.0989 33.3758ZM20.9912 31.0778C20.9782 31.146 20.9344 31.27 20.7862 31.3347L15.6855 33.5582C15.2852 33.7326 14.8271 33.6458 14.5183 33.3371L13.0587 31.8775L19.2912 29.1607L20.8944 30.7639C21.0087 30.8781 21.0041 31.0096 20.9912 31.0778ZM10.0709 30.8788L5.1213 25.9291L12.6679 8.61642L27.3836 23.3322L10.0709 30.8788Z" fill="#5CC6BA"/>
<path d="M30.7266 4.21875H28.6172C28.0347 4.21875 27.5625 4.69097 27.5625 5.27344C27.5625 5.85591 28.0347 6.32812 28.6172 6.32812H30.7266C31.309 6.32812 31.7812 5.85591 31.7812 5.27344C31.7812 4.69097 31.309 4.21875 30.7266 4.21875Z" fill="#5CC6BA"/>
</svg>
