<svg id="eQzprewRtWX1" xmlns="http://www.w3.org/2000/svg" xmlns:xlink="http://www.w3.org/1999/xlink" viewBox="0 0 431 76" shape-rendering="geometricPrecision" text-rendering="geometricPrecision"><style><![CDATA[#eQzprewRtWX2 {animation: eQzprewRtWX2_c_o 3200ms linear infinite alternate forwards}@keyframes eQzprewRtWX2_c_o { 0% {opacity: 1;animation-timing-function: cubic-bezier(0.42,0,0.58,1)} 31.25% {opacity: 0} 100% {opacity: 0}} #eQzprewRtWX5_to {animation: eQzprewRtWX5_to__to 3200ms linear infinite alternate forwards}@keyframes eQzprewRtWX5_to__to { 0% {transform: translate(328.233994px,39.775px)} 31.25% {transform: translate(328.233994px,39.775px);animation-timing-function: cubic-bezier(0.455,0.03,0.515,0.955)} 62.5% {transform: translate(261px,39.775px);animation-timing-function: cubic-bezier(0.455,0.03,0.515,0.955)} 81.25% {transform: translate(261px,39.775px);animation-timing-function: cubic-bezier(0.455,0.03,0.515,0.955)} 90.625% {transform: translate(261px,34.78px);animation-timing-function: cubic-bezier(0.455,0.03,0.515,0.955)} 100% {transform: translate(261px,39.78px)}} #eQzprewRtWX7_to {animation: eQzprewRtWX7_to__to 3200ms linear infinite alternate forwards}@keyframes eQzprewRtWX7_to__to { 0% {transform: translate(193.214005px,36.800001px)} 31.25% {transform: translate(193.214005px,36.800001px);animation-timing-function: cubic-bezier(0.455,0.03,0.515,0.955)} 62.5% {transform: translate(193.214005px,36.800001px);animation-timing-function: cubic-bezier(0.455,0.03,0.515,0.955)} 71.875% {transform: translate(193.214005px,36.800001px);animation-timing-function: cubic-bezier(0.455,0.03,0.515,0.955)} 81.25% {transform: translate(193.214005px,31.8px);animation-timing-function: cubic-bezier(0.455,0.03,0.515,0.955)} 90.625% {transform: translate(193.214005px,36.800001px)} 100% {transform: translate(193.214005px,36.800001px)}} #eQzprewRtWX9_to {animation: eQzprewRtWX9_to__to 3200ms linear infinite alternate forwards}@keyframes eQzprewRtWX9_to__to { 0% {transform: translate(16.425px,37.525px)} 31.25% {transform: translate(16.425px,37.525px);animation-timing-function: cubic-bezier(0.455,0.03,0.515,0.955)} 62.5% {transform: translate(151px,37.525px);animation-timing-function: cubic-bezier(0.455,0.03,0.515,0.955)} 71.875% {transform: translate(151px,32.53px);animation-timing-function: cubic-bezier(0.455,0.03,0.515,0.955)} 81.25% {transform: translate(151px,37.525px)} 100% {transform: translate(151px,37.525px)}}]]></style><defs><filter id="eQzprewRtWX4-filter" x="-400%" width="600%" y="-400%" height="600%"><feGaussianBlur id="eQzprewRtWX4-filter-drop-shadow-0-blur" in="SourceAlpha" stdDeviation="0,0"/><feOffset id="eQzprewRtWX4-filter-drop-shadow-0-offset" dx="0.5" dy="0.5" result="tmp"/><feFlood id="eQzprewRtWX4-filter-drop-shadow-0-flood" flood-color="rgba(0,0,0,0.25)"/><feComposite id="eQzprewRtWX4-filter-drop-shadow-0-composite" operator="in" in2="tmp"/><feMerge id="eQzprewRtWX4-filter-drop-shadow-0-merge"><feMergeNode id="eQzprewRtWX4-filter-drop-shadow-0-merge-node-1"/><feMergeNode id="eQzprewRtWX4-filter-drop-shadow-0-merge-node-2" in="SourceGraphic"/></feMerge></filter><filter id="eQzprewRtWX5-filter" x="-400%" width="600%" y="-400%" height="600%"><feGaussianBlur id="eQzprewRtWX5-filter-drop-shadow-0-blur" in="SourceAlpha" stdDeviation="0,0"/><feOffset id="eQzprewRtWX5-filter-drop-shadow-0-offset" dx="0.5" dy="0.5" result="tmp"/><feFlood id="eQzprewRtWX5-filter-drop-shadow-0-flood" flood-color="rgba(0,0,0,0.25)"/><feComposite id="eQzprewRtWX5-filter-drop-shadow-0-composite" operator="in" in2="tmp"/><feMerge id="eQzprewRtWX5-filter-drop-shadow-0-merge"><feMergeNode id="eQzprewRtWX5-filter-drop-shadow-0-merge-node-1"/><feMergeNode id="eQzprewRtWX5-filter-drop-shadow-0-merge-node-2" in="SourceGraphic"/></feMerge></filter><filter id="eQzprewRtWX7-filter" x="-400%" width="600%" y="-400%" height="600%"><feGaussianBlur id="eQzprewRtWX7-filter-drop-shadow-0-blur" in="SourceAlpha" stdDeviation="0,0"/><feOffset id="eQzprewRtWX7-filter-drop-shadow-0-offset" dx="0.5" dy="0.5" result="tmp"/><feFlood id="eQzprewRtWX7-filter-drop-shadow-0-flood" flood-color="rgba(0,0,0,0.25)"/><feComposite id="eQzprewRtWX7-filter-drop-shadow-0-composite" operator="in" in2="tmp"/><feMerge id="eQzprewRtWX7-filter-drop-shadow-0-merge"><feMergeNode id="eQzprewRtWX7-filter-drop-shadow-0-merge-node-1"/><feMergeNode id="eQzprewRtWX7-filter-drop-shadow-0-merge-node-2" in="SourceGraphic"/></feMerge></filter><filter id="eQzprewRtWX9-filter" x="-400%" width="600%" y="-400%" height="600%"><feGaussianBlur id="eQzprewRtWX9-filter-drop-shadow-0-blur" in="SourceAlpha" stdDeviation="0,0"/><feOffset id="eQzprewRtWX9-filter-drop-shadow-0-offset" dx="0.5" dy="0.5" result="tmp"/><feFlood id="eQzprewRtWX9-filter-drop-shadow-0-flood" flood-color="rgba(0,0,0,0.25)"/><feComposite id="eQzprewRtWX9-filter-drop-shadow-0-composite" operator="in" in2="tmp"/><feMerge id="eQzprewRtWX9-filter-drop-shadow-0-merge"><feMergeNode id="eQzprewRtWX9-filter-drop-shadow-0-merge-node-1"/><feMergeNode id="eQzprewRtWX9-filter-drop-shadow-0-merge-node-2" in="SourceGraphic"/></feMerge></filter></defs><g id="eQzprewRtWX2"><path id="eQzprewRtWX3" d="M12.45,55.75C10.25,55.75,8.1,55.5333,6,55.1C3.93333,54.7,2.28333,54.1333,1.05,53.4L2.75,45.45C4.35,46.3833,6.06667,47.0833,7.9,47.55C9.76667,48.0167,11.5833,48.25,13.35,48.25C15.15,48.25,16.5333,47.95,17.5,47.35C18.5,46.7167,19,45.85,19,44.75C19,43.9167,18.6,43.2167,17.8,42.65C17,42.0833,15.5,41.3,13.3,40.3C10.8,39.1667,8.96667,37.9333,7.8,36.6C6.63333,35.2333,6.05,33.65,6.05,31.85C6.05,31.25,6.13333,30.5,6.3,29.6C6.96667,26.5,8.66667,24.0167,11.4,22.15C14.1333,20.25,17.5833,19.3,21.75,19.3C23.8833,19.3,25.75,19.4667,27.35,19.8C28.95,20.1333,30.4333,20.6667,31.8,21.4L30.15,29.15C27.5833,27.6167,24.8,26.85,21.8,26.85C20.2,26.85,18.8667,27.1167,17.8,27.65C16.7667,28.15,16.1333,28.8833,15.9,29.85C15.8667,29.9833,15.85,30.1667,15.85,30.4C15.85,31.1667,16.2667,31.8333,17.1,32.4C17.9667,32.9667,19.5,33.7167,21.7,34.65C24.3,35.8167,26.1667,37.0333,27.3,38.3C28.4333,39.5333,29,41.05,29,42.85C29,43.6167,28.9,44.4833,28.7,45.45C28.0333,48.75,26.4,51.3,23.8,53.1C21.2,54.8667,17.4167,55.75,12.45,55.75ZM165.86,31L174.66,31L175.56,44.75L182.36,31L189.46,31L190.36,44.75L197.16,31L205.96,31L192.81,55L185.16,55L183.91,41.5L176.96,55L168.81,55L165.86,31ZM214.788,27.8C213.655,27.8,212.738,27.4833,212.038,26.85C211.338,26.1833,210.988,25.3167,210.988,24.25C210.988,23.25,211.255,22.3167,211.788,21.45C212.321,20.5833,213.021,19.9,213.888,19.4C214.788,18.8667,215.738,18.6,216.738,18.6C217.871,18.6,218.788,18.95,219.488,19.65C220.221,20.3167,220.588,21.1833,220.588,22.25C220.588,22.4167,220.555,22.7333,220.488,23.2C220.188,24.5,219.488,25.6,218.388,26.5C217.288,27.3667,216.088,27.8,214.788,27.8ZM209.738,31L218.538,31L213.438,55L204.638,55L209.738,31ZM295.739,55.75C293.306,55.75,291.472,55.1833,290.239,54.05C289.039,52.9167,288.439,51.3167,288.439,49.25C288.439,48.4167,288.539,47.5,288.739,46.5L290.739,37.1L287.339,37.1L288.639,31L292.039,31L293.539,23.8L302.339,23.8L300.839,31L306.339,31L305.039,37.1L299.539,37.1L297.789,45.3C297.656,45.8333,297.589,46.3667,297.589,46.9C297.589,47.6,297.789,48.1167,298.189,48.45C298.589,48.7833,299.256,48.95,300.189,48.95C301.389,48.95,302.589,48.65,303.789,48.05L302.389,54.6C301.456,55,300.472,55.2833,299.439,55.45C298.406,55.65,297.172,55.75,295.739,55.75ZM318.726,55.75C314.86,55.75,311.776,54.9,309.476,53.2C307.176,51.4667,306.026,49.05,306.026,45.95C306.026,45.05,306.126,44.1,306.326,43.1C307.193,39.0667,309.01,35.9167,311.776,33.65C314.576,31.3833,318.31,30.25,322.976,30.25C325.276,30.25,327.276,30.6833,328.976,31.55C330.676,32.4167,331.976,33.6,332.876,35.1C333.776,36.6,334.226,38.2833,334.226,40.15C334.226,40.95,334.126,41.8,333.926,42.7L333.226,45.95L314.076,45.95C314.176,48.4833,316.56,49.75,321.226,49.75C322.793,49.75,324.426,49.6167,326.126,49.35C327.826,49.0833,329.326,48.7167,330.626,48.25L329.426,54.05C328.093,54.55,326.46,54.95,324.526,55.25C322.593,55.5833,320.66,55.75,318.726,55.75ZM326.076,40.45C326.11,40.25,326.126,39.9833,326.126,39.65C326.126,38.55,325.776,37.7167,325.076,37.15C324.376,36.5833,323.193,36.3,321.526,36.3C319.926,36.3,318.576,36.6833,317.476,37.45C316.376,38.1833,315.626,39.1833,315.226,40.45L326.076,40.45ZM346.407,55.75C343.24,55.75,340.707,54.8833,338.807,53.15C336.94,51.4167,336.007,49.0667,336.007,46.1C336.007,45.3,336.123,44.2833,336.357,43.05C336.89,40.55,337.89,38.3333,339.357,36.4C340.857,34.4333,342.673,32.9167,344.807,31.85C346.973,30.7833,349.323,30.25,351.857,30.25C353.523,30.25,355.007,30.4833,356.307,30.95C357.607,31.4167,358.657,32.0833,359.457,32.95L359.907,31L368.707,31L363.607,55L355.107,55L355.607,52.6C352.907,54.7,349.84,55.75,346.407,55.75ZM350.157,48.95C351.49,48.95,352.757,48.6167,353.957,47.95C355.19,47.25,356.157,46.3167,356.857,45.15L357.757,40.9C357.557,39.7333,356.99,38.8167,356.057,38.15C355.157,37.45,354.04,37.1,352.707,37.1C350.907,37.1,349.34,37.6333,348.007,38.7C346.673,39.7667,345.807,41.2167,345.407,43.05C345.273,43.6167,345.207,44.2333,345.207,44.9C345.207,47.6,346.857,48.95,350.157,48.95Z" fill="rgb(92,198,186)" stroke="none" stroke-width="1"/><path id="eQzprewRtWX4" d="M40.4168,55.75C37.9835,55.75,36.1501,55.1833,34.9168,54.05C33.7168,52.9167,33.1168,51.3167,33.1168,49.25C33.1168,48.4167,33.2168,47.5,33.4168,46.5L35.4168,37.1L32.0168,37.1L33.3168,31L36.7168,31L38.2168,23.8L47.0168,23.8L45.5168,31L51.0168,31L49.7168,37.1L44.2168,37.1L42.4668,45.3C42.3335,45.8333,42.2668,46.3667,42.2668,46.9C42.2668,47.6,42.4668,48.1167,42.8668,48.45C43.2668,48.7833,43.9335,48.95,44.8668,48.95C46.0668,48.95,47.2668,48.65,48.4668,48.05L47.0668,54.6C46.1335,55,45.1501,55.2833,44.1168,55.45C43.0835,55.65,41.8501,55.75,40.4168,55.75ZM58.7098,55.75C56.1098,55.75,54.1098,55.0833,52.7098,53.75C51.3431,52.3833,50.6598,50.5667,50.6598,48.3C50.6598,47.5,50.7598,46.65,50.9598,45.75L54.1098,31L62.9098,31L59.9598,44.75C59.8598,45.25,59.8098,45.7333,59.8098,46.2C59.8098,48,60.8098,48.9,62.8098,48.9C63.9431,48.9,65.0264,48.6333,66.0598,48.1C67.1264,47.5667,68.0764,46.7833,68.9098,45.75L72.0598,31L80.8598,31L75.7598,55L67.2598,55L67.8098,52.4C66.5098,53.5,65.0598,54.3333,63.4598,54.9C61.8931,55.4667,60.3098,55.75,58.7098,55.75ZM91.8156,55.75C88.6823,55.75,86.1656,54.8833,84.2656,53.15C82.3656,51.4167,81.4156,49.0667,81.4156,46.1C81.4156,45.3,81.5323,44.2833,81.7656,43.05C82.299,40.5167,83.2823,38.2833,84.7156,36.35C86.1823,34.4167,87.9823,32.9167,90.1156,31.85C92.2823,30.7833,94.6656,30.25,97.2656,30.25C98.9323,30.25,100.416,30.4833,101.716,30.95C103.016,31.4167,104.066,32.0833,104.866,32.95L108.066,18.05L116.866,18.05L109.016,55L100.516,55L101.016,52.6C98.3156,54.7,95.249,55.75,91.8156,55.75ZM95.5656,48.95C96.899,48.95,98.1656,48.6167,99.3656,47.95C100.599,47.25,101.566,46.3167,102.266,45.15L103.166,40.9C102.966,39.7333,102.399,38.8167,101.466,38.15C100.566,37.45,99.449,37.1,98.1156,37.1C96.3156,37.1,94.749,37.6333,93.4156,38.7C92.0823,39.7667,91.2156,41.2167,90.8156,43.05C90.6823,43.6167,90.6156,44.2167,90.6156,44.85C90.6156,47.5833,92.2656,48.95,95.5656,48.95ZM122.368,66.5C120.768,66.5,119.184,66.35,117.618,66.05C116.051,65.75,114.751,65.35,113.718,64.85L115.018,58.75C117.384,59.8833,120.134,60.45,123.268,60.45C125.368,60.45,127.068,59.95,128.368,58.95C129.668,57.95,130.684,56.35,131.418,54.15L132.218,51.75C130.918,52.85,129.468,53.6833,127.868,54.25C126.301,54.8167,124.718,55.1,123.118,55.1C120.518,55.1,118.518,54.4333,117.118,53.1C115.751,51.7333,115.068,49.9167,115.068,47.65C115.068,46.85,115.168,46,115.368,45.1L118.368,31L127.168,31L124.368,44.1C124.268,44.6,124.218,45.0833,124.218,45.55C124.218,47.35,125.218,48.25,127.218,48.25C128.351,48.25,129.434,47.9833,130.468,47.45C131.534,46.9167,132.484,46.1333,133.318,45.1L136.318,31L145.118,31L140.368,53.35C139.434,57.6833,137.584,60.95,134.818,63.15C132.051,65.3833,127.901,66.5,122.368,66.5ZM228.454,55.75C226.021,55.75,224.187,55.1833,222.954,54.05C221.754,52.9167,221.154,51.3167,221.154,49.25C221.154,48.4167,221.254,47.5,221.454,46.5L223.454,37.1L220.054,37.1L221.354,31L224.754,31L226.254,23.8L235.054,23.8L233.554,31L239.054,31L237.754,37.1L232.254,37.1L230.504,45.3C230.371,45.8333,230.304,46.3667,230.304,46.9C230.304,47.6,230.504,48.1167,230.904,48.45C231.304,48.7833,231.971,48.95,232.904,48.95C234.104,48.95,235.304,48.65,236.504,48.05L235.104,54.6C234.171,55,233.187,55.2833,232.154,55.45C231.121,55.65,229.887,55.75,228.454,55.75ZM245.391,18.05L254.191,18.05L250.891,33.45C252.191,32.3833,253.591,31.5833,255.091,31.05C256.591,30.5167,258.108,30.25,259.641,30.25C262.341,30.25,264.358,30.9167,265.691,32.25C267.024,33.55,267.691,35.3,267.691,37.5C267.691,38.4667,267.608,39.3,267.441,40L264.291,55L255.491,55L258.391,41.15C258.491,40.5833,258.541,40.1,258.541,39.7C258.541,37.9667,257.558,37.1,255.591,37.1C254.458,37.1,253.358,37.3667,252.291,37.9C251.258,38.4333,250.308,39.2167,249.441,40.25L246.341,55L237.541,55L245.391,18.05ZM372.963,31L381.113,31L380.513,33.6C381.747,32.5333,383.08,31.7167,384.513,31.15C385.947,30.55,387.397,30.25,388.863,30.25C390.663,30.25,392.047,30.5167,393.013,31.05C393.98,31.5833,394.68,32.3833,395.113,33.45C396.347,32.45,397.73,31.6667,399.263,31.1C400.83,30.5333,402.347,30.25,403.813,30.25C406.347,30.25,408.163,30.7667,409.263,31.8C410.397,32.8333,410.963,34.3333,410.963,36.3C410.963,37.2667,410.83,38.3833,410.563,39.65L407.313,55L398.913,55L401.863,40.9C401.997,40.3667,402.063,39.8333,402.063,39.3C402.063,38.5333,401.847,37.9833,401.413,37.65C401.013,37.2833,400.363,37.1,399.463,37.1C397.963,37.1,396.63,37.6333,395.463,38.7C395.263,39.8333,395.097,40.7,394.963,41.3L392.063,55L383.663,55L386.713,40.55C386.847,39.8167,386.913,39.3333,386.913,39.1C386.913,38.4,386.713,37.9,386.313,37.6C385.947,37.2667,385.347,37.1,384.513,37.1C382.78,37.1,381.097,38.05,379.463,39.95L376.313,55L367.863,55L372.963,31ZM418.264,20.05L427.064,20.05L422.064,43.5L413.264,43.5L418.264,20.05ZM415.064,55.75C413.931,55.75,413.014,55.4167,412.314,54.75C411.614,54.0833,411.264,53.2167,411.264,52.15C411.264,51.1167,411.531,50.1833,412.064,49.35C412.631,48.4833,413.348,47.8,414.214,47.3C415.114,46.8,416.048,46.55,417.014,46.55C418.148,46.55,419.064,46.8833,419.764,47.55C420.464,48.2167,420.814,49.0833,420.814,50.15C420.814,51.15,420.531,52.0833,419.964,52.95C419.431,53.8167,418.714,54.5,417.814,55C416.914,55.5,415.998,55.75,415.064,55.75Z" filter="url(#eQzprewRtWX4-filter)" fill="rgb(184,226,222)" stroke="none" stroke-width="1"/></g><g id="eQzprewRtWX5_to" transform="translate(328.233994,39.775)"><g id="eQzprewRtWX5" transform="translate(-328.233994,-39.775)" filter="url(#eQzprewRtWX5-filter)"><path id="eQzprewRtWX6" d="M295.95,55.75C293.517,55.75,291.683,55.1833,290.45,54.05C289.25,52.9167,288.65,51.3167,288.65,49.25C288.65,48.4167,288.75,47.5,288.95,46.5L290.95,37.1L287.55,37.1L288.85,31L292.25,31L293.75,23.8L302.55,23.8L301.05,31L306.55,31L305.25,37.1L299.75,37.1L298,45.3C297.867,45.8333,297.8,46.3667,297.8,46.9C297.8,47.6,298,48.1167,298.4,48.45C298.8,48.7833,299.467,48.95,300.4,48.95C301.6,48.95,302.8,48.65,304,48.05L302.6,54.6C301.667,55,300.683,55.2833,299.65,55.45C298.617,55.65,297.383,55.75,295.95,55.75ZM318.937,55.75C315.07,55.75,311.987,54.9,309.687,53.2C307.387,51.4667,306.237,49.05,306.237,45.95C306.237,45.05,306.337,44.1,306.537,43.1C307.404,39.0667,309.22,35.9167,311.987,33.65C314.787,31.3833,318.52,30.25,323.187,30.25C325.487,30.25,327.487,30.6833,329.187,31.55C330.887,32.4167,332.187,33.6,333.087,35.1C333.987,36.6,334.437,38.2833,334.437,40.15C334.437,40.95,334.337,41.8,334.137,42.7L333.437,45.95L314.287,45.95C314.387,48.4833,316.77,49.75,321.437,49.75C323.004,49.75,324.637,49.6167,326.337,49.35C328.037,49.0833,329.537,48.7167,330.837,48.25L329.637,54.05C328.304,54.55,326.67,54.95,324.737,55.25C322.804,55.5833,320.87,55.75,318.937,55.75ZM326.287,40.45C326.32,40.25,326.337,39.9833,326.337,39.65C326.337,38.55,325.987,37.7167,325.287,37.15C324.587,36.5833,323.404,36.3,321.737,36.3C320.137,36.3,318.787,36.6833,317.687,37.45C316.587,38.1833,315.837,39.1833,315.437,40.45L326.287,40.45ZM346.618,55.75C343.451,55.75,340.918,54.8833,339.018,53.15C337.151,51.4167,336.218,49.0667,336.218,46.1C336.218,45.3,336.334,44.2833,336.568,43.05C337.101,40.55,338.101,38.3333,339.568,36.4C341.068,34.4333,342.884,32.9167,345.018,31.85C347.184,30.7833,349.534,30.25,352.068,30.25C353.734,30.25,355.218,30.4833,356.518,30.95C357.818,31.4167,358.868,32.0833,359.668,32.95L360.118,31L368.918,31L363.818,55L355.318,55L355.818,52.6C353.118,54.7,350.051,55.75,346.618,55.75ZM350.368,48.95C351.701,48.95,352.968,48.6167,354.168,47.95C355.401,47.25,356.368,46.3167,357.068,45.15L357.968,40.9C357.768,39.7333,357.201,38.8167,356.268,38.15C355.368,37.45,354.251,37.1,352.918,37.1C351.118,37.1,349.551,37.6333,348.218,38.7C346.884,39.7667,346.018,41.2167,345.618,43.05C345.484,43.6167,345.418,44.2333,345.418,44.9C345.418,47.6,347.068,48.95,350.368,48.95Z" fill="rgb(92,198,186)" stroke="none" stroke-width="1"/></g></g><g id="eQzprewRtWX7_to" transform="translate(193.214005,36.800001)"><g id="eQzprewRtWX7" transform="translate(-193.214005,-36.800001)" filter="url(#eQzprewRtWX7-filter)"><path id="eQzprewRtWX8" d="M165.85,31L174.65,31L175.55,44.75L182.35,31L189.45,31L190.35,44.75L197.15,31L205.95,31L192.8,55L185.15,55L183.9,41.5L176.95,55L168.8,55L165.85,31ZM214.778,27.8C213.645,27.8,212.728,27.4833,212.028,26.85C211.328,26.1833,210.978,25.3167,210.978,24.25C210.978,23.25,211.245,22.3167,211.778,21.45C212.311,20.5833,213.011,19.9,213.878,19.4C214.778,18.8667,215.728,18.6,216.728,18.6C217.861,18.6,218.778,18.95,219.478,19.65C220.211,20.3167,220.578,21.1833,220.578,22.25C220.578,22.4167,220.545,22.7333,220.478,23.2C220.178,24.5,219.478,25.6,218.378,26.5C217.278,27.3667,216.078,27.8,214.778,27.8ZM209.728,31L218.528,31L213.428,55L204.628,55L209.728,31Z" fill="rgb(92,198,186)" stroke="none" stroke-width="1"/></g></g><g id="eQzprewRtWX9_to" transform="translate(16.425,37.525)"><g id="eQzprewRtWX9" transform="translate(-16.425,-37.525)" filter="url(#eQzprewRtWX9-filter)"><path id="eQzprewRtWX10" d="M12.45,55.75C10.25,55.75,8.1,55.5333,6,55.1C3.93333,54.7,2.28333,54.1333,1.05,53.4L2.75,45.45C4.35,46.3833,6.06667,47.0833,7.9,47.55C9.76667,48.0167,11.5833,48.25,13.35,48.25C15.15,48.25,16.5333,47.95,17.5,47.35C18.5,46.7167,19,45.85,19,44.75C19,43.9167,18.6,43.2167,17.8,42.65C17,42.0833,15.5,41.3,13.3,40.3C10.8,39.1667,8.96667,37.9333,7.8,36.6C6.63333,35.2333,6.05,33.65,6.05,31.85C6.05,31.25,6.13333,30.5,6.3,29.6C6.96667,26.5,8.66667,24.0167,11.4,22.15C14.1333,20.25,17.5833,19.3,21.75,19.3C23.8833,19.3,25.75,19.4667,27.35,19.8C28.95,20.1333,30.4333,20.6667,31.8,21.4L30.15,29.15C27.5833,27.6167,24.8,26.85,21.8,26.85C20.2,26.85,18.8667,27.1167,17.8,27.65C16.7667,28.15,16.1333,28.8833,15.9,29.85C15.8667,29.9833,15.85,30.1667,15.85,30.4C15.85,31.1667,16.2667,31.8333,17.1,32.4C17.9667,32.9667,19.5,33.7167,21.7,34.65C24.3,35.8167,26.1667,37.0333,27.3,38.3C28.4333,39.5333,29,41.05,29,42.85C29,43.6167,28.9,44.4833,28.7,45.45C28.0333,48.75,26.4,51.3,23.8,53.1C21.2,54.8667,17.4167,55.75,12.45,55.75Z" fill="rgb(92,198,186)" stroke="none" stroke-width="1"/></g></g></svg>