<svg id="e1xNyijKu3c1" xmlns="http://www.w3.org/2000/svg" xmlns:xlink="http://www.w3.org/1999/xlink" viewBox="0 0 431 76" shape-rendering="geometricPrecision" text-rendering="geometricPrecision"><defs><filter id="e1xNyijKu3c4-filter" x="-400%" width="600%" y="-400%" height="600%"><feGaussianBlur id="e1xNyijKu3c4-filter-drop-shadow-0-blur" in="SourceAlpha" stdDeviation="0,0"/><feOffset id="e1xNyijKu3c4-filter-drop-shadow-0-offset" dx="0.5" dy="0.5" result="tmp"/><feFlood id="e1xNyijKu3c4-filter-drop-shadow-0-flood" flood-color="rgba(0,0,0,0.25)"/><feComposite id="e1xNyijKu3c4-filter-drop-shadow-0-composite" operator="in" in2="tmp"/><feMerge id="e1xNyijKu3c4-filter-drop-shadow-0-merge"><feMergeNode id="e1xNyijKu3c4-filter-drop-shadow-0-merge-node-1"/><feMergeNode id="e1xNyijKu3c4-filter-drop-shadow-0-merge-node-2" in="SourceGraphic"/></feMerge></filter><filter id="e1xNyijKu3c5-filter" x="-400%" width="600%" y="-400%" height="600%"><feGaussianBlur id="e1xNyijKu3c5-filter-drop-shadow-0-blur" in="SourceAlpha" stdDeviation="0,0"/><feOffset id="e1xNyijKu3c5-filter-drop-shadow-0-offset" dx="0.5" dy="0.5" result="tmp"/><feFlood id="e1xNyijKu3c5-filter-drop-shadow-0-flood" flood-color="rgba(0,0,0,0.25)"/><feComposite id="e1xNyijKu3c5-filter-drop-shadow-0-composite" operator="in" in2="tmp"/><feMerge id="e1xNyijKu3c5-filter-drop-shadow-0-merge"><feMergeNode id="e1xNyijKu3c5-filter-drop-shadow-0-merge-node-1"/><feMergeNode id="e1xNyijKu3c5-filter-drop-shadow-0-merge-node-2" in="SourceGraphic"/></feMerge></filter><filter id="e1xNyijKu3c7-filter" x="-400%" width="600%" y="-400%" height="600%"><feGaussianBlur id="e1xNyijKu3c7-filter-drop-shadow-0-blur" in="SourceAlpha" stdDeviation="0,0"/><feOffset id="e1xNyijKu3c7-filter-drop-shadow-0-offset" dx="0.5" dy="0.5" result="tmp"/><feFlood id="e1xNyijKu3c7-filter-drop-shadow-0-flood" flood-color="rgba(0,0,0,0.25)"/><feComposite id="e1xNyijKu3c7-filter-drop-shadow-0-composite" operator="in" in2="tmp"/><feMerge id="e1xNyijKu3c7-filter-drop-shadow-0-merge"><feMergeNode id="e1xNyijKu3c7-filter-drop-shadow-0-merge-node-1"/><feMergeNode id="e1xNyijKu3c7-filter-drop-shadow-0-merge-node-2" in="SourceGraphic"/></feMerge></filter><filter id="e1xNyijKu3c9-filter" x="-400%" width="600%" y="-400%" height="600%"><feGaussianBlur id="e1xNyijKu3c9-filter-drop-shadow-0-blur" in="SourceAlpha" stdDeviation="0,0"/><feOffset id="e1xNyijKu3c9-filter-drop-shadow-0-offset" dx="0.5" dy="0.5" result="tmp"/><feFlood id="e1xNyijKu3c9-filter-drop-shadow-0-flood" flood-color="rgba(0,0,0,0.25)"/><feComposite id="e1xNyijKu3c9-filter-drop-shadow-0-composite" operator="in" in2="tmp"/><feMerge id="e1xNyijKu3c9-filter-drop-shadow-0-merge"><feMergeNode id="e1xNyijKu3c9-filter-drop-shadow-0-merge-node-1"/><feMergeNode id="e1xNyijKu3c9-filter-drop-shadow-0-merge-node-2" in="SourceGraphic"/></feMerge></filter></defs><g id="e1xNyijKu3c2"><path id="e1xNyijKu3c3" d="M12.45,55.75C10.25,55.75,8.1,55.5333,6,55.1C3.93333,54.7,2.28333,54.1333,1.05,53.4L2.75,45.45C4.35,46.3833,6.06667,47.0833,7.9,47.55C9.76667,48.0167,11.5833,48.25,13.35,48.25C15.15,48.25,16.5333,47.95,17.5,47.35C18.5,46.7167,19,45.85,19,44.75C19,43.9167,18.6,43.2167,17.8,42.65C17,42.0833,15.5,41.3,13.3,40.3C10.8,39.1667,8.96667,37.9333,7.8,36.6C6.63333,35.2333,6.05,33.65,6.05,31.85C6.05,31.25,6.13333,30.5,6.3,29.6C6.96667,26.5,8.66667,24.0167,11.4,22.15C14.1333,20.25,17.5833,19.3,21.75,19.3C23.8833,19.3,25.75,19.4667,27.35,19.8C28.95,20.1333,30.4333,20.6667,31.8,21.4L30.15,29.15C27.5833,27.6167,24.8,26.85,21.8,26.85C20.2,26.85,18.8667,27.1167,17.8,27.65C16.7667,28.15,16.1333,28.8833,15.9,29.85C15.8667,29.9833,15.85,30.1667,15.85,30.4C15.85,31.1667,16.2667,31.8333,17.1,32.4C17.9667,32.9667,19.5,33.7167,21.7,34.65C24.3,35.8167,26.1667,37.0333,27.3,38.3C28.4333,39.5333,29,41.05,29,42.85C29,43.6167,28.9,44.4833,28.7,45.45C28.0333,48.75,26.4,51.3,23.8,53.1C21.2,54.8667,17.4167,55.75,12.45,55.75ZM165.86,31L174.66,31L175.56,44.75L182.36,31L189.46,31L190.36,44.75L197.16,31L205.96,31L192.81,55L185.16,55L183.91,41.5L176.96,55L168.81,55L165.86,31ZM214.788,27.8C213.655,27.8,212.738,27.4833,212.038,26.85C211.338,26.1833,210.988,25.3167,210.988,24.25C210.988,23.25,211.255,22.3167,211.788,21.45C212.321,20.5833,213.021,19.9,213.888,19.4C214.788,18.8667,215.738,18.6,216.738,18.6C217.871,18.6,218.788,18.95,219.488,19.65C220.221,20.3167,220.588,21.1833,220.588,22.25C220.588,22.4167,220.555,22.7333,220.488,23.2C220.188,24.5,219.488,25.6,218.388,26.5C217.288,27.3667,216.088,27.8,214.788,27.8ZM209.738,31L218.538,31L213.438,55L204.638,55L209.738,31ZM295.739,55.75C293.306,55.75,291.472,55.1833,290.239,54.05C289.039,52.9167,288.439,51.3167,288.439,49.25C288.439,48.4167,288.539,47.5,288.739,46.5L290.739,37.1L287.339,37.1L288.639,31L292.039,31L293.539,23.8L302.339,23.8L300.839,31L306.339,31L305.039,37.1L299.539,37.1L297.789,45.3C297.656,45.8333,297.589,46.3667,297.589,46.9C297.589,47.6,297.789,48.1167,298.189,48.45C298.589,48.7833,299.256,48.95,300.189,48.95C301.389,48.95,302.589,48.65,303.789,48.05L302.389,54.6C301.456,55,300.472,55.2833,299.439,55.45C298.406,55.65,297.172,55.75,295.739,55.75ZM318.726,55.75C314.86,55.75,311.776,54.9,309.476,53.2C307.176,51.4667,306.026,49.05,306.026,45.95C306.026,45.05,306.126,44.1,306.326,43.1C307.193,39.0667,309.01,35.9167,311.776,33.65C314.576,31.3833,318.31,30.25,322.976,30.25C325.276,30.25,327.276,30.6833,328.976,31.55C330.676,32.4167,331.976,33.6,332.876,35.1C333.776,36.6,334.226,38.2833,334.226,40.15C334.226,40.95,334.126,41.8,333.926,42.7L333.226,45.95L314.076,45.95C314.176,48.4833,316.56,49.75,321.226,49.75C322.793,49.75,324.426,49.6167,326.126,49.35C327.826,49.0833,329.326,48.7167,330.626,48.25L329.426,54.05C328.093,54.55,326.46,54.95,324.526,55.25C322.593,55.5833,320.66,55.75,318.726,55.75ZM326.076,40.45C326.11,40.25,326.126,39.9833,326.126,39.65C326.126,38.55,325.776,37.7167,325.076,37.15C324.376,36.5833,323.193,36.3,321.526,36.3C319.926,36.3,318.576,36.6833,317.476,37.45C316.376,38.1833,315.626,39.1833,315.226,40.45L326.076,40.45ZM346.407,55.75C343.24,55.75,340.707,54.8833,338.807,53.15C336.94,51.4167,336.007,49.0667,336.007,46.1C336.007,45.3,336.123,44.2833,336.357,43.05C336.89,40.55,337.89,38.3333,339.357,36.4C340.857,34.4333,342.673,32.9167,344.807,31.85C346.973,30.7833,349.323,30.25,351.857,30.25C353.523,30.25,355.007,30.4833,356.307,30.95C357.607,31.4167,358.657,32.0833,359.457,32.95L359.907,31L368.707,31L363.607,55L355.107,55L355.607,52.6C352.907,54.7,349.84,55.75,346.407,55.75ZM350.157,48.95C351.49,48.95,352.757,48.6167,353.957,47.95C355.19,47.25,356.157,46.3167,356.857,45.15L357.757,40.9C357.557,39.7333,356.99,38.8167,356.057,38.15C355.157,37.45,354.04,37.1,352.707,37.1C350.907,37.1,349.34,37.6333,348.007,38.7C346.673,39.7667,345.807,41.2167,345.407,43.05C345.273,43.6167,345.207,44.2333,345.207,44.9C345.207,47.6,346.857,48.95,350.157,48.95Z" fill="rgb(92,198,186)" stroke="none" stroke-width="1"/><path id="e1xNyijKu3c4" d="M40.4168,55.75C37.9835,55.75,36.1501,55.1833,34.9168,54.05C33.7168,52.9167,33.1168,51.3167,33.1168,49.25C33.1168,48.4167,33.2168,47.5,33.4168,46.5L35.4168,37.1L32.0168,37.1L33.3168,31L36.7168,31L38.2168,23.8L47.0168,23.8L45.5168,31L51.0168,31L49.7168,37.1L44.2168,37.1L42.4668,45.3C42.3335,45.8333,42.2668,46.3667,42.2668,46.9C42.2668,47.6,42.4668,48.1167,42.8668,48.45C43.2668,48.7833,43.9335,48.95,44.8668,48.95C46.0668,48.95,47.2668,48.65,48.4668,48.05L47.0668,54.6C46.1335,55,45.1501,55.2833,44.1168,55.45C43.0835,55.65,41.8501,55.75,40.4168,55.75ZM58.7098,55.75C56.1098,55.75,54.1098,55.0833,52.7098,53.75C51.3431,52.3833,50.6598,50.5667,50.6598,48.3C50.6598,47.5,50.7598,46.65,50.9598,45.75L54.1098,31L62.9098,31L59.9598,44.75C59.8598,45.25,59.8098,45.7333,59.8098,46.2C59.8098,48,60.8098,48.9,62.8098,48.9C63.9431,48.9,65.0264,48.6333,66.0598,48.1C67.1264,47.5667,68.0764,46.7833,68.9098,45.75L72.0598,31L80.8598,31L75.7598,55L67.2598,55L67.8098,52.4C66.5098,53.5,65.0598,54.3333,63.4598,54.9C61.8931,55.4667,60.3098,55.75,58.7098,55.75ZM91.8156,55.75C88.6823,55.75,86.1656,54.8833,84.2656,53.15C82.3656,51.4167,81.4156,49.0667,81.4156,46.1C81.4156,45.3,81.5323,44.2833,81.7656,43.05C82.299,40.5167,83.2823,38.2833,84.7156,36.35C86.1823,34.4167,87.9823,32.9167,90.1156,31.85C92.2823,30.7833,94.6656,30.25,97.2656,30.25C98.9323,30.25,100.416,30.4833,101.716,30.95C103.016,31.4167,104.066,32.0833,104.866,32.95L108.066,18.05L116.866,18.05L109.016,55L100.516,55L101.016,52.6C98.3156,54.7,95.249,55.75,91.8156,55.75ZM95.5656,48.95C96.899,48.95,98.1656,48.6167,99.3656,47.95C100.599,47.25,101.566,46.3167,102.266,45.15L103.166,40.9C102.966,39.7333,102.399,38.8167,101.466,38.15C100.566,37.45,99.449,37.1,98.1156,37.1C96.3156,37.1,94.749,37.6333,93.4156,38.7C92.0823,39.7667,91.2156,41.2167,90.8156,43.05C90.6823,43.6167,90.6156,44.2167,90.6156,44.85C90.6156,47.5833,92.2656,48.95,95.5656,48.95ZM122.368,66.5C120.768,66.5,119.184,66.35,117.618,66.05C116.051,65.75,114.751,65.35,113.718,64.85L115.018,58.75C117.384,59.8833,120.134,60.45,123.268,60.45C125.368,60.45,127.068,59.95,128.368,58.95C129.668,57.95,130.684,56.35,131.418,54.15L132.218,51.75C130.918,52.85,129.468,53.6833,127.868,54.25C126.301,54.8167,124.718,55.1,123.118,55.1C120.518,55.1,118.518,54.4333,117.118,53.1C115.751,51.7333,115.068,49.9167,115.068,47.65C115.068,46.85,115.168,46,115.368,45.1L118.368,31L127.168,31L124.368,44.1C124.268,44.6,124.218,45.0833,124.218,45.55C124.218,47.35,125.218,48.25,127.218,48.25C128.351,48.25,129.434,47.9833,130.468,47.45C131.534,46.9167,132.484,46.1333,133.318,45.1L136.318,31L145.118,31L140.368,53.35C139.434,57.6833,137.584,60.95,134.818,63.15C132.051,65.3833,127.901,66.5,122.368,66.5ZM228.454,55.75C226.021,55.75,224.187,55.1833,222.954,54.05C221.754,52.9167,221.154,51.3167,221.154,49.25C221.154,48.4167,221.254,47.5,221.454,46.5L223.454,37.1L220.054,37.1L221.354,31L224.754,31L226.254,23.8L235.054,23.8L233.554,31L239.054,31L237.754,37.1L232.254,37.1L230.504,45.3C230.371,45.8333,230.304,46.3667,230.304,46.9C230.304,47.6,230.504,48.1167,230.904,48.45C231.304,48.7833,231.971,48.95,232.904,48.95C234.104,48.95,235.304,48.65,236.504,48.05L235.104,54.6C234.171,55,233.187,55.2833,232.154,55.45C231.121,55.65,229.887,55.75,228.454,55.75ZM245.391,18.05L254.191,18.05L250.891,33.45C252.191,32.3833,253.591,31.5833,255.091,31.05C256.591,30.5167,258.108,30.25,259.641,30.25C262.341,30.25,264.358,30.9167,265.691,32.25C267.024,33.55,267.691,35.3,267.691,37.5C267.691,38.4667,267.608,39.3,267.441,40L264.291,55L255.491,55L258.391,41.15C258.491,40.5833,258.541,40.1,258.541,39.7C258.541,37.9667,257.558,37.1,255.591,37.1C254.458,37.1,253.358,37.3667,252.291,37.9C251.258,38.4333,250.308,39.2167,249.441,40.25L246.341,55L237.541,55L245.391,18.05ZM372.963,31L381.113,31L380.513,33.6C381.747,32.5333,383.08,31.7167,384.513,31.15C385.947,30.55,387.397,30.25,388.863,30.25C390.663,30.25,392.047,30.5167,393.013,31.05C393.98,31.5833,394.68,32.3833,395.113,33.45C396.347,32.45,397.73,31.6667,399.263,31.1C400.83,30.5333,402.347,30.25,403.813,30.25C406.347,30.25,408.163,30.7667,409.263,31.8C410.397,32.8333,410.963,34.3333,410.963,36.3C410.963,37.2667,410.83,38.3833,410.563,39.65L407.313,55L398.913,55L401.863,40.9C401.997,40.3667,402.063,39.8333,402.063,39.3C402.063,38.5333,401.847,37.9833,401.413,37.65C401.013,37.2833,400.363,37.1,399.463,37.1C397.963,37.1,396.63,37.6333,395.463,38.7C395.263,39.8333,395.097,40.7,394.963,41.3L392.063,55L383.663,55L386.713,40.55C386.847,39.8167,386.913,39.3333,386.913,39.1C386.913,38.4,386.713,37.9,386.313,37.6C385.947,37.2667,385.347,37.1,384.513,37.1C382.78,37.1,381.097,38.05,379.463,39.95L376.313,55L367.863,55L372.963,31ZM418.264,20.05L427.064,20.05L422.064,43.5L413.264,43.5L418.264,20.05ZM415.064,55.75C413.931,55.75,413.014,55.4167,412.314,54.75C411.614,54.0833,411.264,53.2167,411.264,52.15C411.264,51.1167,411.531,50.1833,412.064,49.35C412.631,48.4833,413.348,47.8,414.214,47.3C415.114,46.8,416.048,46.55,417.014,46.55C418.148,46.55,419.064,46.8833,419.764,47.55C420.464,48.2167,420.814,49.0833,420.814,50.15C420.814,51.15,420.531,52.0833,419.964,52.95C419.431,53.8167,418.714,54.5,417.814,55C416.914,55.5,415.998,55.75,415.064,55.75Z" filter="url(#e1xNyijKu3c4-filter)" fill="rgb(255,255,255)" stroke="none" stroke-width="1"/></g><g id="e1xNyijKu3c5" filter="url(#e1xNyijKu3c5-filter)"><path id="e1xNyijKu3c6" d="M295.95,55.75C293.517,55.75,291.683,55.1833,290.45,54.05C289.25,52.9167,288.65,51.3167,288.65,49.25C288.65,48.4167,288.75,47.5,288.95,46.5L290.95,37.1L287.55,37.1L288.85,31L292.25,31L293.75,23.8L302.55,23.8L301.05,31L306.55,31L305.25,37.1L299.75,37.1L298,45.3C297.867,45.8333,297.8,46.3667,297.8,46.9C297.8,47.6,298,48.1167,298.4,48.45C298.8,48.7833,299.467,48.95,300.4,48.95C301.6,48.95,302.8,48.65,304,48.05L302.6,54.6C301.667,55,300.683,55.2833,299.65,55.45C298.617,55.65,297.383,55.75,295.95,55.75ZM318.937,55.75C315.07,55.75,311.987,54.9,309.687,53.2C307.387,51.4667,306.237,49.05,306.237,45.95C306.237,45.05,306.337,44.1,306.537,43.1C307.404,39.0667,309.22,35.9167,311.987,33.65C314.787,31.3833,318.52,30.25,323.187,30.25C325.487,30.25,327.487,30.6833,329.187,31.55C330.887,32.4167,332.187,33.6,333.087,35.1C333.987,36.6,334.437,38.2833,334.437,40.15C334.437,40.95,334.337,41.8,334.137,42.7L333.437,45.95L314.287,45.95C314.387,48.4833,316.77,49.75,321.437,49.75C323.004,49.75,324.637,49.6167,326.337,49.35C328.037,49.0833,329.537,48.7167,330.837,48.25L329.637,54.05C328.304,54.55,326.67,54.95,324.737,55.25C322.804,55.5833,320.87,55.75,318.937,55.75ZM326.287,40.45C326.32,40.25,326.337,39.9833,326.337,39.65C326.337,38.55,325.987,37.7167,325.287,37.15C324.587,36.5833,323.404,36.3,321.737,36.3C320.137,36.3,318.787,36.6833,317.687,37.45C316.587,38.1833,315.837,39.1833,315.437,40.45L326.287,40.45ZM346.618,55.75C343.451,55.75,340.918,54.8833,339.018,53.15C337.151,51.4167,336.218,49.0667,336.218,46.1C336.218,45.3,336.334,44.2833,336.568,43.05C337.101,40.55,338.101,38.3333,339.568,36.4C341.068,34.4333,342.884,32.9167,345.018,31.85C347.184,30.7833,349.534,30.25,352.068,30.25C353.734,30.25,355.218,30.4833,356.518,30.95C357.818,31.4167,358.868,32.0833,359.668,32.95L360.118,31L368.918,31L363.818,55L355.318,55L355.818,52.6C353.118,54.7,350.051,55.75,346.618,55.75ZM350.368,48.95C351.701,48.95,352.968,48.6167,354.168,47.95C355.401,47.25,356.368,46.3167,357.068,45.15L357.968,40.9C357.768,39.7333,357.201,38.8167,356.268,38.15C355.368,37.45,354.251,37.1,352.918,37.1C351.118,37.1,349.551,37.6333,348.218,38.7C346.884,39.7667,346.018,41.2167,345.618,43.05C345.484,43.6167,345.418,44.2333,345.418,44.9C345.418,47.6,347.068,48.95,350.368,48.95Z" fill="rgb(92,198,186)" stroke="none" stroke-width="1"/></g><g id="e1xNyijKu3c7" filter="url(#e1xNyijKu3c7-filter)"><path id="e1xNyijKu3c8" d="M165.85,31L174.65,31L175.55,44.75L182.35,31L189.45,31L190.35,44.75L197.15,31L205.95,31L192.8,55L185.15,55L183.9,41.5L176.95,55L168.8,55L165.85,31ZM214.778,27.8C213.645,27.8,212.728,27.4833,212.028,26.85C211.328,26.1833,210.978,25.3167,210.978,24.25C210.978,23.25,211.245,22.3167,211.778,21.45C212.311,20.5833,213.011,19.9,213.878,19.4C214.778,18.8667,215.728,18.6,216.728,18.6C217.861,18.6,218.778,18.95,219.478,19.65C220.211,20.3167,220.578,21.1833,220.578,22.25C220.578,22.4167,220.545,22.7333,220.478,23.2C220.178,24.5,219.478,25.6,218.378,26.5C217.278,27.3667,216.078,27.8,214.778,27.8ZM209.728,31L218.528,31L213.428,55L204.628,55L209.728,31Z" fill="rgb(92,198,186)" stroke="none" stroke-width="1"/></g><g id="e1xNyijKu3c9" filter="url(#e1xNyijKu3c9-filter)"><path id="e1xNyijKu3c10" d="M12.45,55.75C10.25,55.75,8.1,55.5333,6,55.1C3.93333,54.7,2.28333,54.1333,1.05,53.4L2.75,45.45C4.35,46.3833,6.06667,47.0833,7.9,47.55C9.76667,48.0167,11.5833,48.25,13.35,48.25C15.15,48.25,16.5333,47.95,17.5,47.35C18.5,46.7167,19,45.85,19,44.75C19,43.9167,18.6,43.2167,17.8,42.65C17,42.0833,15.5,41.3,13.3,40.3C10.8,39.1667,8.96667,37.9333,7.8,36.6C6.63333,35.2333,6.05,33.65,6.05,31.85C6.05,31.25,6.13333,30.5,6.3,29.6C6.96667,26.5,8.66667,24.0167,11.4,22.15C14.1333,20.25,17.5833,19.3,21.75,19.3C23.8833,19.3,25.75,19.4667,27.35,19.8C28.95,20.1333,30.4333,20.6667,31.8,21.4L30.15,29.15C27.5833,27.6167,24.8,26.85,21.8,26.85C20.2,26.85,18.8667,27.1167,17.8,27.65C16.7667,28.15,16.1333,28.8833,15.9,29.85C15.8667,29.9833,15.85,30.1667,15.85,30.4C15.85,31.1667,16.2667,31.8333,17.1,32.4C17.9667,32.9667,19.5,33.7167,21.7,34.65C24.3,35.8167,26.1667,37.0333,27.3,38.3C28.4333,39.5333,29,41.05,29,42.85C29,43.6167,28.9,44.4833,28.7,45.45C28.0333,48.75,26.4,51.3,23.8,53.1C21.2,54.8667,17.4167,55.75,12.45,55.75Z" fill="rgb(92,198,186)" stroke="none" stroke-width="1"/></g><script><![CDATA[!function(t,n){"object"==typeof exports&&"undefined"!=typeof module?module.exports=n():"function"==typeof define&&define.amd?define(n):((t="undefined"!=typeof globalThis?globalThis:t||self).__SVGATOR_PLAYER__=t.__SVGATOR_PLAYER__||{},t.__SVGATOR_PLAYER__["5c7f360c"]=n())}(this,(function(){"use strict";function t(t,n){var r=Object.keys(t);if(Object.getOwnPropertySymbols){var e=Object.getOwnPropertySymbols(t);n&&(e=e.filter((function(n){return Object.getOwnPropertyDescriptor(t,n).enumerable}))),r.push.apply(r,e)}return r}function n(n){for(var r=1;r<arguments.length;r++){var e=null!=arguments[r]?arguments[r]:{};r%2?t(Object(e),!0).forEach((function(t){u(n,t,e[t])})):Object.getOwnPropertyDescriptors?Object.defineProperties(n,Object.getOwnPropertyDescriptors(e)):t(Object(e)).forEach((function(t){Object.defineProperty(n,t,Object.getOwnPropertyDescriptor(e,t))}))}return n}function r(t){return(r="function"==typeof Symbol&&"symbol"==typeof Symbol.iterator?function(t){return typeof t}:function(t){return t&&"function"==typeof Symbol&&t.constructor===Symbol&&t!==Symbol.prototype?"symbol":typeof t})(t)}function e(t,n){if(!(t instanceof n))throw new TypeError("Cannot call a class as a function")}function i(t,n){for(var r=0;r<n.length;r++){var e=n[r];e.enumerable=e.enumerable||!1,e.configurable=!0,"value"in e&&(e.writable=!0),Object.defineProperty(t,e.key,e)}}function o(t,n,r){return n&&i(t.prototype,n),r&&i(t,r),t}function u(t,n,r){return n in t?Object.defineProperty(t,n,{value:r,enumerable:!0,configurable:!0,writable:!0}):t[n]=r,t}function a(t){return(a=Object.setPrototypeOf?Object.getPrototypeOf:function(t){return t.__proto__||Object.getPrototypeOf(t)})(t)}function l(t,n){return(l=Object.setPrototypeOf||function(t,n){return t.__proto__=n,t})(t,n)}function f(){if("undefined"==typeof Reflect||!Reflect.construct)return!1;if(Reflect.construct.sham)return!1;if("function"==typeof Proxy)return!0;try{return Boolean.prototype.valueOf.call(Reflect.construct(Boolean,[],(function(){}))),!0}catch(t){return!1}}function s(t,n,r){return(s=f()?Reflect.construct:function(t,n,r){var e=[null];e.push.apply(e,n);var i=new(Function.bind.apply(t,e));return r&&l(i,r.prototype),i}).apply(null,arguments)}function c(t,n){if(n&&("object"==typeof n||"function"==typeof n))return n;if(void 0!==n)throw new TypeError("Derived constructors may only return object or undefined");return function(t){if(void 0===t)throw new ReferenceError("this hasn't been initialised - super() hasn't been called");return t}(t)}function h(t,n,r){return(h="undefined"!=typeof Reflect&&Reflect.get?Reflect.get:function(t,n,r){var e=function(t,n){for(;!Object.prototype.hasOwnProperty.call(t,n)&&null!==(t=a(t)););return t}(t,n);if(e){var i=Object.getOwnPropertyDescriptor(e,n);return i.get?i.get.call(r):i.value}})(t,n,r||t)}function v(t){return function(t){if(Array.isArray(t))return y(t)}(t)||function(t){if("undefined"!=typeof Symbol&&null!=t[Symbol.iterator]||null!=t["@@iterator"])return Array.from(t)}(t)||function(t,n){if(!t)return;if("string"==typeof t)return y(t,n);var r=Object.prototype.toString.call(t).slice(8,-1);"Object"===r&&t.constructor&&(r=t.constructor.name);if("Map"===r||"Set"===r)return Array.from(t);if("Arguments"===r||/^(?:Ui|I)nt(?:8|16|32)(?:Clamped)?Array$/.test(r))return y(t,n)}(t)||function(){throw new TypeError("Invalid attempt to spread non-iterable instance.\nIn order to be iterable, non-array objects must have a [Symbol.iterator]() method.")}()}function y(t,n){(null==n||n>t.length)&&(n=t.length);for(var r=0,e=new Array(n);r<n;r++)e[r]=t[r];return e}var g=d(Math.pow(10,-6));function d(t){var n=arguments.length>1&&void 0!==arguments[1]?arguments[1]:6;if(Number.isInteger(t))return t;var r=Math.pow(10,n);return Math.round((+t+Number.EPSILON)*r)/r}function p(t,n){var r=arguments.length>2&&void 0!==arguments[2]?arguments[2]:g;return Math.abs(t-n)<r}var m=Math.PI/180;function b(t){return t}function w(t,n,r){var e=1-r;return 3*r*e*(t*e+n*r)+r*r*r}function x(){var t=arguments.length>0&&void 0!==arguments[0]?arguments[0]:0,n=arguments.length>1&&void 0!==arguments[1]?arguments[1]:0,r=arguments.length>2&&void 0!==arguments[2]?arguments[2]:1,e=arguments.length>3&&void 0!==arguments[3]?arguments[3]:1;return t<0||t>1||r<0||r>1?null:p(t,n)&&p(r,e)?b:function(i){if(i<=0)return t>0?i*n/t:0===n&&r>0?i*e/r:0;if(i>=1)return r<1?1+(i-1)*(e-1)/(r-1):1===r&&t<1?1+(i-1)*(n-1)/(t-1):1;for(var o,u=0,a=1;u<a;){var l=w(t,r,o=(u+a)/2);if(p(i,l))break;l<i?u=o:a=o}return w(n,e,o)}}function A(){return 1}function k(t){return 1===t?1:0}function S(){var t=arguments.length>0&&void 0!==arguments[0]?arguments[0]:1,n=arguments.length>1&&void 0!==arguments[1]?arguments[1]:0;if(1===t){if(0===n)return k;if(1===n)return A}var r=1/t;return function(t){return t>=1?1:(t+=n*r)-t%r}}var _=Math.sin,O=Math.cos,j=Math.acos,M=Math.asin,P=Math.tan,E=Math.atan2,I=Math.PI/180,R=180/Math.PI,F=Math.sqrt,N=function(){function t(){var n=arguments.length>0&&void 0!==arguments[0]?arguments[0]:1,r=arguments.length>1&&void 0!==arguments[1]?arguments[1]:0,i=arguments.length>2&&void 0!==arguments[2]?arguments[2]:0,o=arguments.length>3&&void 0!==arguments[3]?arguments[3]:1,u=arguments.length>4&&void 0!==arguments[4]?arguments[4]:0,a=arguments.length>5&&void 0!==arguments[5]?arguments[5]:0;e(this,t),this.m=[n,r,i,o,u,a],this.i=null,this.w=null,this.s=null}return o(t,[{key:"determinant",get:function(){var t=this.m;return t[0]*t[3]-t[1]*t[2]}},{key:"isIdentity",get:function(){if(null===this.i){var t=this.m;this.i=1===t[0]&&0===t[1]&&0===t[2]&&1===t[3]&&0===t[4]&&0===t[5]}return this.i}},{key:"point",value:function(t,n){var r=this.m;return{x:r[0]*t+r[2]*n+r[4],y:r[1]*t+r[3]*n+r[5]}}},{key:"translateSelf",value:function(){var t=arguments.length>0&&void 0!==arguments[0]?arguments[0]:0,n=arguments.length>1&&void 0!==arguments[1]?arguments[1]:0;if(!t&&!n)return this;var r=this.m;return r[4]+=r[0]*t+r[2]*n,r[5]+=r[1]*t+r[3]*n,this.w=this.s=this.i=null,this}},{key:"rotateSelf",value:function(){var t=arguments.length>0&&void 0!==arguments[0]?arguments[0]:0;if(t%=360){var n=_(t*=I),r=O(t),e=this.m,i=e[0],o=e[1];e[0]=i*r+e[2]*n,e[1]=o*r+e[3]*n,e[2]=e[2]*r-i*n,e[3]=e[3]*r-o*n,this.w=this.s=this.i=null}return this}},{key:"scaleSelf",value:function(){var t=arguments.length>0&&void 0!==arguments[0]?arguments[0]:1,n=arguments.length>1&&void 0!==arguments[1]?arguments[1]:1;if(1!==t||1!==n){var r=this.m;r[0]*=t,r[1]*=t,r[2]*=n,r[3]*=n,this.w=this.s=this.i=null}return this}},{key:"skewSelf",value:function(t,n){if(n%=360,(t%=360)||n){var r=this.m,e=r[0],i=r[1],o=r[2],u=r[3];t&&(t=P(t*I),r[2]+=e*t,r[3]+=i*t),n&&(n=P(n*I),r[0]+=o*n,r[1]+=u*n),this.w=this.s=this.i=null}return this}},{key:"resetSelf",value:function(){var t=arguments.length>0&&void 0!==arguments[0]?arguments[0]:1,n=arguments.length>1&&void 0!==arguments[1]?arguments[1]:0,r=arguments.length>2&&void 0!==arguments[2]?arguments[2]:0,e=arguments.length>3&&void 0!==arguments[3]?arguments[3]:1,i=arguments.length>4&&void 0!==arguments[4]?arguments[4]:0,o=arguments.length>5&&void 0!==arguments[5]?arguments[5]:0,u=this.m;return u[0]=t,u[1]=n,u[2]=r,u[3]=e,u[4]=i,u[5]=o,this.w=this.s=this.i=null,this}},{key:"recomposeSelf",value:function(){var t=arguments.length>0&&void 0!==arguments[0]?arguments[0]:null,n=arguments.length>1&&void 0!==arguments[1]?arguments[1]:null,r=arguments.length>2&&void 0!==arguments[2]?arguments[2]:null,e=arguments.length>3&&void 0!==arguments[3]?arguments[3]:null,i=arguments.length>4&&void 0!==arguments[4]?arguments[4]:null;return this.isIdentity||this.resetSelf(),t&&(t.x||t.y)&&this.translateSelf(t.x,t.y),n&&this.rotateSelf(n),r&&(r.x&&this.skewSelf(r.x,0),r.y&&this.skewSelf(0,r.y)),!e||1===e.x&&1===e.y||this.scaleSelf(e.x,e.y),i&&(i.x||i.y)&&this.translateSelf(i.x,i.y),this}},{key:"decompose",value:function(){var t=arguments.length>0&&void 0!==arguments[0]?arguments[0]:0,n=arguments.length>1&&void 0!==arguments[1]?arguments[1]:0,r=this.m,e=r[0]*r[0]+r[1]*r[1],i=[[r[0],r[1]],[r[2],r[3]]],o=F(e);if(0===o)return{origin:{x:d(r[4]),y:d(r[5])},translate:{x:d(t),y:d(n)},scale:{x:0,y:0},skew:{x:0,y:0},rotate:0};i[0][0]/=o,i[0][1]/=o;var u=r[0]*r[3]-r[1]*r[2]<0;u&&(o=-o);var a=i[0][0]*i[1][0]+i[0][1]*i[1][1];i[1][0]-=i[0][0]*a,i[1][1]-=i[0][1]*a;var l=F(i[1][0]*i[1][0]+i[1][1]*i[1][1]);if(0===l)return{origin:{x:d(r[4]),y:d(r[5])},translate:{x:d(t),y:d(n)},scale:{x:d(o),y:0},skew:{x:0,y:0},rotate:0};i[1][0]/=l,i[1][1]/=l,a/=l;var f=0;return i[1][1]<0?(f=j(i[1][1])*R,i[0][1]<0&&(f=360-f)):f=M(i[0][1])*R,u&&(f=-f),a=E(a,F(i[0][0]*i[0][0]+i[0][1]*i[0][1]))*R,u&&(a=-a),{origin:{x:d(r[4]),y:d(r[5])},translate:{x:d(t),y:d(n)},scale:{x:d(o),y:d(l)},skew:{x:d(a),y:0},rotate:d(f)}}},{key:"clone",value:function(){var t=this.m;return new this.constructor(t[0],t[1],t[2],t[3],t[4],t[5])}},{key:"toString",value:function(){var t=arguments.length>0&&void 0!==arguments[0]?arguments[0]:" ";return null===this.s&&(this.s="matrix("+this.m.map((function(t){return d(t)})).join(t)+")"),this.s}}],[{key:"create",value:function(t){return t?Array.isArray(t)?s(this,v(t)):t instanceof this?t.clone():(new this).recomposeSelf(t.origin,t.rotate,t.skew,t.scale,t.translate):new this}}]),t}();function T(t,n,r){return t>=.5?r:n}function B(t,n,r){return 0===t||n===r?n:t*(r-n)+n}function q(t,n,r){var e=B(t,n,r);return e<=0?0:e}function L(t,n,r){var e=B(t,n,r);return e<=0?0:e>=1?1:e}function C(t,n,r){return 0===t?n:1===t?r:{x:B(t,n.x,r.x),y:B(t,n.y,r.y)}}function D(t,n,r){var e=function(t,n,r){return Math.round(B(t,n,r))}(t,n,r);return e<=0?0:e>=255?255:e}function z(t,n,r){return 0===t?n:1===t?r:{r:D(t,n.r,r.r),g:D(t,n.g,r.g),b:D(t,n.b,r.b),a:B(t,null==n.a?1:n.a,null==r.a?1:r.a)}}function V(t,n){for(var r=[],e=0;e<t;e++)r.push(n);return r}function G(t,n){if(--n<=0)return t;var r=(t=Object.assign([],t)).length;do{for(var e=0;e<r;e++)t.push(t[e])}while(--n>0);return t}var Y,$=function(){function t(n){e(this,t),this.list=n,this.length=n.length}return o(t,[{key:"setAttribute",value:function(t,n){for(var r=this.list,e=0;e<this.length;e++)r[e].setAttribute(t,n)}},{key:"removeAttribute",value:function(t){for(var n=this.list,r=0;r<this.length;r++)n[r].removeAttribute(t)}},{key:"style",value:function(t,n){for(var r=this.list,e=0;e<this.length;e++)r[e].style[t]=n}}]),t}(),U=/-./g,Q=function(t,n){return n.toUpperCase()};function H(t){return"function"==typeof t?t:T}function J(t){return t?"function"==typeof t?t:Array.isArray(t)?function(t){var n=arguments.length>1&&void 0!==arguments[1]?arguments[1]:b;if(!Array.isArray(t))return n;switch(t.length){case 1:return S(t[0])||n;case 2:return S(t[0],t[1])||n;case 4:return x(t[0],t[1],t[2],t[3])||n}return n}(t,null):function(t,n){var r=arguments.length>2&&void 0!==arguments[2]?arguments[2]:b;switch(t){case"linear":return b;case"steps":return S(n.steps||1,n.jump||0)||r;case"bezier":case"cubic-bezier":return x(n.x1||0,n.y1||0,n.x2||0,n.y2||0)||r}return r}(t.type,t.value,null):null}function Z(t,n,r){var e=arguments.length>3&&void 0!==arguments[3]&&arguments[3],i=n.length-1;if(t<=n[0].t)return e?[0,0,n[0].v]:n[0].v;if(t>=n[i].t)return e?[i,1,n[i].v]:n[i].v;var o,u=n[0],a=null;for(o=1;o<=i;o++){if(!(t>n[o].t)){a=n[o];break}u=n[o]}return null==a?e?[i,1,n[i].v]:n[i].v:u.t===a.t?e?[o,1,a.v]:a.v:(t=(t-u.t)/(a.t-u.t),u.e&&(t=u.e(t)),e?[o,t,r(t,u.v,a.v)]:r(t,u.v,a.v))}function K(t,n){var r=arguments.length>2&&void 0!==arguments[2]?arguments[2]:null;return t&&t.length?"function"!=typeof n?null:("function"!=typeof r&&(r=null),function(e){var i=Z(e,t,n);return null!=i&&r&&(i=r(i)),i}):null}function W(t,n){return t.t-n.t}function X(t,n,e,i,o){var u,a="@"===e[0],l="#"===e[0],f=Y[e],s=T;switch(a?(u=e.substr(1),e=u.replace(U,Q)):l&&(e=e.substr(1)),r(f)){case"function":if(s=f(i,o,Z,J,e,a,n,t),l)return s;break;case"string":s=K(i,H(f));break;case"object":if((s=K(i,H(f.i),f.f))&&"function"==typeof f.u)return f.u(n,s,e,a,t)}return s?function(t,n,r){if(arguments.length>3&&void 0!==arguments[3]&&arguments[3])return t instanceof $?function(e){return t.style(n,r(e))}:function(e){return t.style[n]=r(e)};if(Array.isArray(n)){var e=n.length;return function(i){var o=r(i);if(null==o)for(var u=0;u<e;u++)t[u].removeAttribute(n);else for(var a=0;a<e;a++)t[a].setAttribute(n,o)}}return function(e){var i=r(e);null==i?t.removeAttribute(n):t.setAttribute(n,i)}}(n,e,s,a):null}function tt(t,n,e,i){if(!i||"object"!==r(i))return null;var o=null,u=null;return Array.isArray(i)?u=function(t){if(!t||!t.length)return null;for(var n=0;n<t.length;n++)t[n].e&&(t[n].e=J(t[n].e));return t.sort(W)}(i):(u=i.keys,o=i.data||null),u?X(t,n,e,u,o):null}function nt(t,n,r){if(!r)return null;var e=[];for(var i in r)if(r.hasOwnProperty(i)){var o=tt(t,n,i,r[i]);o&&e.push(o)}return e.length?e:null}function rt(t,n){if(!n.duration||n.duration<0)return null;var r=function(t,n){if(!n)return null;var r=[];if(Array.isArray(n))for(var e=n.length,i=0;i<e;i++){var o=n[i];if(2===o.length){var u=null;if("string"==typeof o[0])u=t.getElementById(o[0]);else if(Array.isArray(o[0])){u=[];for(var a=0;a<o[0].length;a++)if("string"==typeof o[0][a]){var l=t.getElementById(o[0][a]);l&&u.push(l)}u=u.length?1===u.length?u[0]:new $(u):null}if(u){var f=nt(t,u,o[1]);f&&(r=r.concat(f))}}}else for(var s in n)if(n.hasOwnProperty(s)){var c=t.getElementById(s);if(c){var h=nt(t,c,n[s]);h&&(r=r.concat(h))}}return r.length?r:null}(t,n.elements);return r?function(t,n){var r=arguments.length>2&&void 0!==arguments[2]?arguments[2]:1/0,e=arguments.length>3&&void 0!==arguments[3]?arguments[3]:1,i=arguments.length>4&&void 0!==arguments[4]&&arguments[4],o=arguments.length>5&&void 0!==arguments[5]?arguments[5]:1,u=t.length,a=e>0?n:0;i&&r%2==0&&(a=n-a);var l=null;return function(f,s){var c=f%n,h=1+(f-c)/n;s*=e,i&&h%2==0&&(s=-s);var v=!1;if(h>r)c=a,v=!0,-1===o&&(c=e>0?0:n);else if(s<0&&(c=n-c),c===l)return!1;l=c;for(var y=0;y<u;y++)t[y](c);return v}}(r,n.duration,n.iterations||1/0,n.direction||1,!!n.alternate,n.fill||1):null}function et(t){return+("0x"+(t.replace(/[^0-9a-fA-F]+/g,"")||27))}function it(t,n,r){return!t||!r||n>t.length?t:t.substring(0,n)+it(t.substring(n+1),r,r)}function ot(t){var n=arguments.length>1&&void 0!==arguments[1]?arguments[1]:27;return!t||t%n?t%n:ot(t/n,n)}function ut(t,n,r){if(t&&t.length){var e=et(r),i=et(n),o=ot(e)+5,u=it(t,ot(e,5),o);return u=u.replace(/\x7c$/g,"==").replace(/\x2f$/g,"="),u=function(t,n,r){var e=+("0x"+t.substring(0,4));t=t.substring(4);for(var i=n%e+r%27,o=[],u=0;u<t.length;u+=2)if("|"!==t[u]){var a=+("0x"+t[u]+t[u+1])-i;o.push(a)}else{var l=+("0x"+t.substring(u+1,u+1+4))-i;u+=3,o.push(l)}return String.fromCharCode.apply(String,o)}(u=(u=atob(u)).replace(/[\x41-\x5A]/g,""),i,e),u=JSON.parse(u)}}Number.isInteger||(Number.isInteger=function(t){return"number"==typeof t&&isFinite(t)&&Math.floor(t)===t}),Number.EPSILON||(Number.EPSILON=2220446049250313e-31);var at=function(){function t(n,r){var i=arguments.length>2&&void 0!==arguments[2]?arguments[2]:{};e(this,t),this._id=0,this._running=!1,this._rollingBack=!1,this._animations=n,this.duration=r.duration,this.alternate=r.alternate,this.fill=r.fill,this.iterations=r.iterations,this.direction=i.direction||1,this.speed=i.speed||1,this.fps=i.fps||100,this.offset=i.offset||0,this.rollbackStartOffset=0}return o(t,[{key:"_rollback",value:function(){var t=this,n=1/0,r=null;this.rollbackStartOffset=this.offset,this._rollingBack||(this._rollingBack=!0,this._running=!0);this._id=window.requestAnimationFrame((function e(i){if(t._rollingBack){null==r&&(r=i);var o=i-r,u=t.rollbackStartOffset-o,a=Math.round(u*t.speed);if(a>t.duration&&n!=1/0){var l=!!t.alternate&&a/t.duration%2>1,f=a%t.duration;a=(f+=l?t.duration:0)||t.duration}var s=t.fps?1e3/t.fps:0,c=Math.max(0,a);if(c<n-s){t.offset=c,n=c;for(var h=t._animations,v=h.length,y=0;y<v;y++)h[y](c,t.direction)}var g=!1;if(t.iterations>0&&-1===t.fill){var d=t.iterations*t.duration,p=d==a;a=p?0:a,t.offset=p?0:t.offset,g=a>d}a>0&&t.offset>=a&&!g?t._id=window.requestAnimationFrame(e):t.stop()}}))}},{key:"_start",value:function(){var t=this,n=arguments.length>0&&void 0!==arguments[0]?arguments[0]:0,r=-1/0,e=null,i={},o=function o(u){t._running=!0,null==e&&(e=u);var a=Math.round((u-e+n)*t.speed),l=t.fps?1e3/t.fps:0;if(a>r+l&&!t._rollingBack){t.offset=a,r=a;for(var f=t._animations,s=f.length,c=0,h=0;h<s;h++)i[h]?c++:(i[h]=f[h](a,t.direction),i[h]&&c++);if(c===s)return void t._stop()}t._id=window.requestAnimationFrame(o)};this._id=window.requestAnimationFrame(o)}},{key:"_stop",value:function(){this._id&&window.cancelAnimationFrame(this._id),this._running=!1,this._rollingBack=!1}},{key:"play",value:function(){!this._rollingBack&&this._running||(this._rollingBack=!1,this.rollbackStartOffset>this.duration&&(this.offset=this.rollbackStartOffset-(this.rollbackStartOffset-this.offset)%this.duration,this.rollbackStartOffset=0),this._start(this.offset))}},{key:"stop",value:function(){this._stop(),this.offset=0,this.rollbackStartOffset=0;var t=this.direction,n=this._animations;window.requestAnimationFrame((function(){for(var r=0;r<n.length;r++)n[r](0,t)}))}},{key:"reachedToEnd",value:function(){return this.iterations>0&&this.offset>=this.iterations*this.duration}},{key:"restart",value:function(){this._stop(),this.offset=0,this._start()}},{key:"pause",value:function(){this._stop()}},{key:"reverse",value:function(){this.direction=-this.direction}}],[{key:"build",value:function(r,e){return delete r.animationSettings,r.options=ut(r.options,r.root,"5c7f360c"),r.animations.map((function(t){var e=ut(t.s,r.root,"5c7f360c");for(var i in delete t.s,r.animationSettings||(r.animationSettings=n({},e)),e)e.hasOwnProperty(i)&&(t[i]=e[i])})),(r=function(t,n){if(Y=n,!t||!t.root||!Array.isArray(t.animations))return null;for(var r=document.getElementsByTagName("svg"),e=!1,i=0;i<r.length;i++)if(r[i].id===t.root&&!r[i].svgatorAnimation){(e=r[i]).svgatorAnimation=!0;break}if(!e)return null;var o=t.animations.map((function(t){return rt(e,t)})).filter((function(t){return!!t}));return o.length?{element:e,animations:o,animationSettings:t.animationSettings,options:t.options||void 0}:null}(r,e))?{el:r.element,options:r.options||{},player:new t(r.animations,r.animationSettings,r.options)}:null}},{key:"push",value:function(t){return this.build(t)}},{key:"init",value:function(){var t=this,n=window.__SVGATOR_PLAYER__&&window.__SVGATOR_PLAYER__["5c7f360c"];Array.isArray(n)&&n.splice(0).forEach((function(n){return t.build(n)}))}}]),t}();function lt(t){return d(t)+""}function ft(t){var n=arguments.length>1&&void 0!==arguments[1]?arguments[1]:" ";return t&&t.length?t.map(lt).join(n):""}function st(t){return t?null==t.a||t.a>=1?"rgb("+t.r+","+t.g+","+t.b+")":"rgba("+t.r+","+t.g+","+t.b+","+t.a+")":"transparent"}function ct(t){return t?"url(#"+t+")":"none"}!function(){for(var t=0,n=["ms","moz","webkit","o"],r=0;r<n.length&&!window.requestAnimationFrame;++r)window.requestAnimationFrame=window[n[r]+"RequestAnimationFrame"],window.cancelAnimationFrame=window[n[r]+"CancelAnimationFrame"]||window[n[r]+"CancelRequestAnimationFrame"];window.requestAnimationFrame||(window.requestAnimationFrame=function(n){var r=Date.now(),e=Math.max(0,16-(r-t)),i=window.setTimeout((function(){n(r+e)}),e);return t=r+e,i},window.cancelAnimationFrame=window.clearTimeout)}();var ht={f:null,i:function(t,n,r){return 0===t?n:1===t?r:{x:q(t,n.x,r.x),y:q(t,n.y,r.y)}},u:function(t,n){return function(r){var e=n(r);t.setAttribute("rx",lt(e.x)),t.setAttribute("ry",lt(e.y))}}},vt={f:null,i:function(t,n,r){return 0===t?n:1===t?r:{width:q(t,n.width,r.width),height:q(t,n.height,r.height)}},u:function(t,n){return function(r){var e=n(r);t.setAttribute("width",lt(e.width)),t.setAttribute("height",lt(e.height))}}};Object.freeze({M:2,L:2,Z:0,H:1,V:1,C:6,Q:4,T:2,S:4,A:7});var yt={},gt=null;function dt(t){var n=function(){if(gt)return gt;if("object"!==("undefined"==typeof document?"undefined":r(document))||!document.createElementNS)return{};var t=document.createElementNS("http://www.w3.org/2000/svg","svg");return t&&t.style?(t.style.position="absolute",t.style.opacity="0.01",t.style.zIndex="-9999",t.style.left="-9999px",t.style.width="1px",t.style.height="1px",gt={svg:t}):{}}().svg;if(!n)return function(t){return null};var e=document.createElementNS(n.namespaceURI,"path");e.setAttributeNS(null,"d",t),e.setAttributeNS(null,"fill","none"),e.setAttributeNS(null,"stroke","none"),n.appendChild(e);var i=e.getTotalLength();return function(t){var n=e.getPointAtLength(i*t);return{x:n.x,y:n.y}}}function pt(t){return yt[t]?yt[t]:yt[t]=dt(t)}function mt(t,n,r,e){if(!t||!e)return!1;var i=["M",t.x,t.y];if(n&&r&&(i.push("C"),i.push(n.x),i.push(n.y),i.push(r.x),i.push(r.y)),n?!r:r){var o=n||r;i.push("Q"),i.push(o.x),i.push(o.y)}return n||r||i.push("L"),i.push(e.x),i.push(e.y),i.join(" ")}function bt(t,n,r,e){var i=arguments.length>4&&void 0!==arguments[4]?arguments[4]:1,o=mt(t,n,r,e),u=pt(o);try{return u(i)}catch(t){return null}}function wt(t,n,r,e){var i=1-e;return i*i*t+2*i*e*n+e*e*r}function xt(t,n,r,e){return 2*(1-e)*(n-t)+2*e*(r-n)}function At(t,n,r,e){var i=arguments.length>4&&void 0!==arguments[4]&&arguments[4],o=bt(t,n,null,r,e);return o||(o={x:wt(t.x,n.x,r.x,e),y:wt(t.y,n.y,r.y,e)}),i&&(o.a=kt(t,n,r,e)),o}function kt(t,n,r,e){return Math.atan2(xt(t.y,n.y,r.y,e),xt(t.x,n.x,r.x,e))}function St(t,n,r,e,i){var o=i*i;return i*o*(e-t+3*(n-r))+3*o*(t+r-2*n)+3*i*(n-t)+t}function _t(t,n,r,e,i){var o=1-i;return 3*(o*o*(n-t)+2*o*i*(r-n)+i*i*(e-r))}function Ot(t,n,r,e,i){var o=arguments.length>5&&void 0!==arguments[5]&&arguments[5],u=bt(t,n,r,e,i);return u||(u={x:St(t.x,n.x,r.x,e.x,i),y:St(t.y,n.y,r.y,e.y,i)}),o&&(u.a=jt(t,n,r,e,i)),u}function jt(t,n,r,e,i){return Math.atan2(_t(t.y,n.y,r.y,e.y,i),_t(t.x,n.x,r.x,e.x,i))}function Mt(t,n,r){return t+(n-t)*r}function Pt(t,n,r){var e=arguments.length>3&&void 0!==arguments[3]&&arguments[3],i={x:Mt(t.x,n.x,r),y:Mt(t.y,n.y,r)};return e&&(i.a=Et(t,n)),i}function Et(t,n){return Math.atan2(n.y-t.y,n.x-t.x)}function It(t,n,r){var e=arguments.length>3&&void 0!==arguments[3]&&arguments[3];if(Ft(n)){if(Nt(r))return At(n,r.start,r,t,e)}else if(Ft(r)){if(n.end)return At(n,n.end,r,t,e)}else{if(n.end)return r.start?Ot(n,n.end,r.start,r,t,e):At(n,n.end,r,t,e);if(r.start)return At(n,r.start,r,t,e)}return Pt(n,r,t,e)}function Rt(t,n,r){var e=It(t,n,r,!0);return e.a=function(t){return arguments.length>1&&void 0!==arguments[1]&&arguments[1]?t+Math.PI:t}(e.a)/m,e}function Ft(t){return!t.type||"corner"===t.type}function Nt(t){return null!=t.start&&!Ft(t)}var Tt=new N;var Bt={f:lt,i:B},qt={f:lt,i:L};function Lt(t,n,r){return t.map((function(t){return function(t,n,r){var e=t.v;if(!e||"g"!==e.t||e.s||!e.v||!e.r)return t;var i=r.getElementById(e.r),o=i&&i.querySelectorAll("stop")||[];return e.s=e.v.map((function(t,n){var r=o[n]&&o[n].getAttribute("offset");return{c:t,o:r=d(parseInt(r)/100)}})),delete e.v,t}(t,0,r)}))}var Ct={gt:"gradientTransform",c:{x:"cx",y:"cy"},rd:"r",f:{x:"x1",y:"y1"},to:{x:"x2",y:"y2"}};function Dt(t,n,e,i,o,u,a,l){return Lt(t,0,l),n=function(t,n,r){for(var e,i,o,u=t.length-1,a={},l=0;l<=u;l++)(e=t[l]).e&&(e.e=n(e.e)),e.v&&"g"===(i=e.v).t&&i.r&&(o=r.getElementById(i.r))&&(a[i.r]={e:o,s:o.querySelectorAll("stop")});return a}(t,i,l),function(i){var o=e(i,t,zt);if(!o)return"none";if("c"===o.t)return st(o.v);if("g"===o.t){if(!n[o.r])return ct(o.r);var u=n[o.r];return function(t,n){for(var r=t.s,e=r.length;e<n.length;e++){var i=r[r.length-1].cloneNode();i.id=Yt(i.id),t.e.appendChild(i),r=t.s=t.e.querySelectorAll("stop")}for(var o=0,u=r.length,a=n.length-1;o<u;o++)r[o].setAttribute("stop-color",st(n[Math.min(o,a)].c)),r[o].setAttribute("offset",n[Math.min(o,a)].o)}(u,o.s),Object.keys(Ct).forEach((function(t){if(void 0!==o[t])if("object"!==r(Ct[t])){var n,e="gt"===t?(n=o[t],Array.isArray(n)?"matrix("+n.join(" ")+")":""):o[t],i=Ct[t];u.e.setAttribute(i,e)}else Object.keys(Ct[t]).forEach((function(n){if(void 0!==o[t][n]){var r=o[t][n],e=Ct[t][n];u.e.setAttribute(e,r)}}))})),ct(o.r)}return"none"}}function zt(t,r,e){if(0===t)return r;if(1===t)return e;if(r&&e){var i=r.t;if(i===e.t)switch(r.t){case"c":return{t:i,v:z(t,r.v,e.v)};case"g":if(r.r===e.r){var o={t:i,s:Vt(t,r.s,e.s),r:r.r};return r.gt&&e.gt&&(o.gt=function(t,n,r){var e=n.length;if(e!==r.length)return T(t,n,r);for(var i=new Array(e),o=0;o<e;o++)i[o]=B(t,n[o],r[o]);return i}(t,r.gt,e.gt)),r.c?(o.c=C(t,r.c,e.c),o.rd=q(t,r.rd,e.rd)):r.f&&(o.f=C(t,r.f,e.f),o.to=C(t,r.to,e.to)),o}}if("c"===r.t&&"g"===e.t||"c"===e.t&&"g"===r.t){var u="c"===r.t?r:e,a="g"===r.t?n({},r):n({},e),l=a.s.map((function(t){return{c:u.v,o:t.o}}));return a.s="c"===r.t?Vt(t,l,a.s):Vt(t,a.s,l),a}}return T(t,r,e)}function Vt(t,n,r){if(n.length===r.length)return n.map((function(n,e){return Gt(t,n,r[e])}));for(var e=Math.max(n.length,r.length),i=[],o=0;o<e;o++){var u=Gt(t,n[Math.min(o,n.length-1)],r[Math.min(o,r.length-1)]);i.push(u)}return i}function Gt(t,n,r){return{o:L(t,n.o,r.o||0),c:z(t,n.c,r.c||{})}}function Yt(t){return t.replace(/-fill-([0-9]+)$/,(function(t,n){return"-fill-"+(+n+1)}))}var $t={fill:Dt,"fill-opacity":qt,stroke:Dt,"stroke-opacity":qt,"stroke-width":Bt,"stroke-dashoffset":{f:lt,i:B},"stroke-dasharray":{f:function(t){var n=arguments.length>1&&void 0!==arguments[1]?arguments[1]:" ";return t&&t.length>0&&(t=t.map((function(t){return d(t,4)}))),ft(t,n)},i:function(t,n,r){var e,i,o,u=n.length,a=r.length;if(u!==a)if(0===u)n=V(u=a,0);else if(0===a)a=u,r=V(u,0);else{var l=(o=(e=u)*(i=a)/function(t,n){for(var r;n;)r=n,n=t%n,t=r;return t||1}(e,i))<0?-o:o;n=G(n,Math.floor(l/u)),r=G(r,Math.floor(l/a)),u=a=l}for(var f=[],s=0;s<u;s++)f.push(d(q(t,n[s],r[s])));return f}},opacity:qt,transform:function(t,n,e,i){if(!(t=function(t,n){if(!t||"object"!==r(t))return null;var e=!1;for(var i in t)t.hasOwnProperty(i)&&(t[i]&&t[i].length?(t[i].forEach((function(t){t.e&&(t.e=n(t.e))})),e=!0):delete t[i]);return e?t:null}(t,i)))return null;var o=function(r,i,o){var u=arguments.length>3&&void 0!==arguments[3]?arguments[3]:null;return t[r]?e(i,t[r],o):n&&n[r]?n[r]:u};return n&&n.a&&t.o?function(n){var r=e(n,t.o,Rt);return Tt.recomposeSelf(r,o("r",n,B,0)+r.a,o("k",n,C),o("s",n,C),o("t",n,C)).toString()}:function(t){return Tt.recomposeSelf(o("o",t,It,null),o("r",t,B,0),o("k",t,C),o("s",t,C),o("t",t,C)).toString()}},r:Bt,"#size":vt,"#radius":ht,_:function(t,n){if(Array.isArray(t))for(var r=0;r<t.length;r++)this[t[r]]=n;else this[t]=n}},Ut=function(t){!function(t,n){if("function"!=typeof n&&null!==n)throw new TypeError("Super expression must either be null or a function");t.prototype=Object.create(n&&n.prototype,{constructor:{value:t,writable:!0,configurable:!0}}),n&&l(t,n)}(u,t);var n,r,i=(n=u,r=f(),function(){var t,e=a(n);if(r){var i=a(this).constructor;t=Reflect.construct(e,arguments,i)}else t=e.apply(this,arguments);return c(this,t)});function u(){return e(this,u),i.apply(this,arguments)}return o(u,null,[{key:"build",value:function(t){var n=h(a(u),"build",this).call(this,t,$t);if(!n)return null;n.el,n.options,function(t,n,r){t.play()}(n.player)}}]),u}(at);return Ut.init(),Ut}));
(function(s,i,o,w){w[o]=w[o]||{};w[o][s]=w[o][s]||[];w[o][s].push(i);})('5c7f360c',{"root":"e1xNyijKu3c1","animations":[{"elements":{"e1xNyijKu3c2":{"opacity":[{"t":0,"v":1,"e":[0.42,0,0.58,1]},{"t":1000,"v":0}]},"e1xNyijKu3c5":{"transform":{"data":{"t":{"x":-328.233994,"y":-39.775}},"keys":{"o":[{"t":1000,"v":{"x":328.233994,"y":39.775,"type":"corner"},"e":[0.455,0.03,0.515,0.955]},{"t":2000,"v":{"x":261,"y":39.775,"type":"corner"},"e":[0.455,0.03,0.515,0.955]},{"t":2600,"v":{"x":261,"y":39.775,"type":"corner"},"e":[0.455,0.03,0.515,0.955]},{"t":2900,"v":{"x":261,"y":34.78,"type":"corner"},"e":[0.455,0.03,0.515,0.955]},{"t":3200,"v":{"x":261,"y":39.78,"type":"corner"}}]}}},"e1xNyijKu3c7":{"transform":{"data":{"t":{"x":-193.214005,"y":-36.800001}},"keys":{"o":[{"t":1000,"v":{"x":193.214005,"y":36.800001,"type":"corner"},"e":[0.455,0.03,0.515,0.955]},{"t":2000,"v":{"x":193.214005,"y":36.800001,"type":"corner"},"e":[0.455,0.03,0.515,0.955]},{"t":2300,"v":{"x":193.214005,"y":36.800001,"type":"corner"},"e":[0.455,0.03,0.515,0.955]},{"t":2600,"v":{"x":193.214005,"y":31.8,"type":"corner"},"e":[0.455,0.03,0.515,0.955]},{"t":2900,"v":{"x":193.214005,"y":36.800001,"type":"corner"}}]}}},"e1xNyijKu3c9":{"transform":{"data":{"t":{"x":-16.425,"y":-37.525}},"keys":{"o":[{"t":1000,"v":{"x":16.425,"y":37.525,"type":"corner"},"e":[0.455,0.03,0.515,0.955]},{"t":2000,"v":{"x":151,"y":37.525,"type":"corner"},"e":[0.455,0.03,0.515,0.955]},{"t":2300,"v":{"x":151,"y":32.53,"type":"corner"},"e":[0.455,0.03,0.515,0.955]},{"t":2600,"v":{"x":151,"y":37.525,"type":"corner"}}]}}}},"s":"MMDA1Mzk3M2U4MDkxOGEU3ZDkwODU4YjhhM2UD1NkE0ZjRlNGM0YzQ4UM2U4MDg1OGU4MTdmOPTA4NThiOGEzZTU2SjQRkNDgzZTg1VDkwODEO4ZTdkOTBRODU4YjhhWOGZHM2U1NkY0ZDQ4MU2U4Mjg1TTg4ODgzZTQU2NGQ0OEszZTdkODgR5MFM4MThlOGE3ZDkwKODEzZTU2ODJMN2Q4OSDhmODE0ODNlOGY4YzLgxODE4MDNlNTY0ZEIH5OQ|"}],"options":"MBDAxMDg4MmZOODA4MTPZlN2Y4MTJmSjQ3MmYX3OTdjNmU3MTJmOGE/Q"},'__SVGATOR_PLAYER__',window)]]></script></svg>